<svg xmlns="http://www.w3.org/2000/svg" xmlns:xlink="http://www.w3.org/1999/xlink" width="183.685" height="193.694" viewBox="0 0 183.685 193.694">
  <defs>
    <linearGradient id="linear-gradient" x1="1.106" y1="0.5" x2="-0.097" y2="0.5" gradientUnits="objectBoundingBox">
      <stop offset="0" stop-color="#2d435a"/>
      <stop offset="0.504" stop-color="#daa000"/>
      <stop offset="1" stop-color="#2d435a"/>
    </linearGradient>
  </defs>
  <g id="Groupe_769" data-name="Groupe 769" transform="translate(-1521.056 -1354.162)">
    <path id="Intersection_1" data-name="Intersection 1" d="M177.871,190.787a2.907,2.907,0,1,1,2.906,2.907A2.905,2.905,0,0,1,177.871,190.787Zm-19.764,0a2.906,2.906,0,1,1,2.906,2.907A2.905,2.905,0,0,1,158.108,190.787Zm-19.763,0a2.906,2.906,0,1,1,2.906,2.907A2.906,2.906,0,0,1,138.344,190.787Zm-19.763,0a2.906,2.906,0,1,1,2.906,2.907A2.905,2.905,0,0,1,118.581,190.787Zm-19.764,0a2.906,2.906,0,1,1,2.908,2.907A2.906,2.906,0,0,1,98.817,190.787Zm-19.764,0a2.907,2.907,0,1,1,2.907,2.907A2.906,2.906,0,0,1,79.053,190.787Zm-19.762,0a2.906,2.906,0,1,1,2.9,2.907A2.9,2.9,0,0,1,59.291,190.787Zm-19.763,0a2.906,2.906,0,1,1,2.906,2.907A2.905,2.905,0,0,1,39.527,190.787Zm-19.764,0a2.906,2.906,0,1,1,2.906,2.907A2.906,2.906,0,0,1,19.763,190.787ZM0,190.787a2.906,2.906,0,1,1,2.906,2.907A2.906,2.906,0,0,1,0,190.787Zm177.871-20.925a2.907,2.907,0,1,1,2.906,2.906A2.906,2.906,0,0,1,177.871,169.861Zm-19.764,0a2.906,2.906,0,1,1,2.906,2.906A2.906,2.906,0,0,1,158.108,169.861Zm-19.763,0a2.906,2.906,0,1,1,2.906,2.906A2.907,2.907,0,0,1,138.344,169.861Zm-19.763,0a2.906,2.906,0,1,1,2.906,2.906A2.906,2.906,0,0,1,118.581,169.861Zm-19.764,0a2.906,2.906,0,1,1,2.908,2.906A2.907,2.907,0,0,1,98.817,169.861Zm-19.764,0a2.907,2.907,0,1,1,2.907,2.906A2.907,2.907,0,0,1,79.053,169.861Zm-19.762,0a2.906,2.906,0,1,1,2.9,2.906A2.905,2.905,0,0,1,59.291,169.861Zm-19.763,0a2.906,2.906,0,1,1,2.906,2.906A2.906,2.906,0,0,1,39.527,169.861Zm-19.764,0a2.906,2.906,0,1,1,2.906,2.906A2.907,2.907,0,0,1,19.763,169.861ZM0,169.861a2.906,2.906,0,1,1,2.906,2.906A2.907,2.907,0,0,1,0,169.861Zm177.871-20.926a2.907,2.907,0,1,1,2.906,2.907A2.905,2.905,0,0,1,177.871,148.935Zm-19.764,0a2.906,2.906,0,1,1,2.906,2.907A2.905,2.905,0,0,1,158.108,148.935Zm-19.763,0a2.906,2.906,0,1,1,2.906,2.907A2.906,2.906,0,0,1,138.344,148.935Zm-19.763,0a2.906,2.906,0,1,1,2.906,2.907A2.905,2.905,0,0,1,118.581,148.935Zm-19.764,0a2.906,2.906,0,1,1,2.908,2.907A2.906,2.906,0,0,1,98.817,148.935Zm-19.764,0a2.907,2.907,0,1,1,2.907,2.907A2.906,2.906,0,0,1,79.053,148.935Zm-19.762,0a2.906,2.906,0,1,1,2.9,2.907A2.9,2.9,0,0,1,59.291,148.935Zm-19.763,0a2.906,2.906,0,1,1,2.906,2.907A2.905,2.905,0,0,1,39.527,148.935Zm-19.764,0a2.906,2.906,0,1,1,2.906,2.907A2.906,2.906,0,0,1,19.763,148.935ZM0,148.935a2.906,2.906,0,1,1,2.906,2.907A2.906,2.906,0,0,1,0,148.935Zm177.871-20.926a2.907,2.907,0,1,1,2.906,2.907A2.905,2.905,0,0,1,177.871,128.009Zm-19.764,0a2.906,2.906,0,1,1,2.906,2.907A2.905,2.905,0,0,1,158.108,128.009Zm-19.763,0a2.906,2.906,0,1,1,2.906,2.907A2.906,2.906,0,0,1,138.344,128.009Zm-19.763,0a2.906,2.906,0,1,1,2.906,2.907A2.905,2.905,0,0,1,118.581,128.009Zm-19.764,0a2.906,2.906,0,1,1,2.908,2.907A2.906,2.906,0,0,1,98.817,128.009Zm-19.764,0a2.907,2.907,0,1,1,2.907,2.907A2.906,2.906,0,0,1,79.053,128.009Zm-19.762,0a2.906,2.906,0,1,1,2.9,2.907A2.9,2.9,0,0,1,59.291,128.009Zm-19.763,0a2.906,2.906,0,1,1,2.906,2.907A2.905,2.905,0,0,1,39.527,128.009Zm-19.764,0a2.906,2.906,0,1,1,2.906,2.907A2.906,2.906,0,0,1,19.763,128.009ZM0,128.009a2.906,2.906,0,1,1,2.906,2.907A2.906,2.906,0,0,1,0,128.009Zm177.871-20.925a2.907,2.907,0,1,1,2.906,2.906A2.907,2.907,0,0,1,177.871,107.083Zm-19.764,0a2.906,2.906,0,1,1,2.906,2.906A2.907,2.907,0,0,1,158.108,107.083Zm-19.763,0a2.906,2.906,0,1,1,2.906,2.906A2.908,2.908,0,0,1,138.344,107.083Zm-19.763,0a2.906,2.906,0,1,1,2.906,2.906A2.908,2.908,0,0,1,118.581,107.083Zm-19.764,0a2.906,2.906,0,1,1,2.908,2.906A2.908,2.908,0,0,1,98.817,107.083Zm-19.764,0a2.907,2.907,0,1,1,2.907,2.906A2.908,2.908,0,0,1,79.053,107.083Zm-19.762,0a2.906,2.906,0,1,1,2.9,2.906A2.906,2.906,0,0,1,59.291,107.083Zm-19.763,0a2.906,2.906,0,1,1,2.906,2.906A2.907,2.907,0,0,1,39.527,107.083Zm-19.764,0a2.906,2.906,0,1,1,2.906,2.906A2.908,2.908,0,0,1,19.763,107.083ZM0,107.083a2.906,2.906,0,1,1,2.906,2.906A2.908,2.908,0,0,1,0,107.083ZM177.871,86.157a2.907,2.907,0,1,1,2.906,2.906A2.906,2.906,0,0,1,177.871,86.157Zm-19.764,0a2.906,2.906,0,1,1,2.906,2.906A2.906,2.906,0,0,1,158.108,86.157Zm-19.763,0a2.906,2.906,0,1,1,2.906,2.906A2.907,2.907,0,0,1,138.344,86.157Zm-19.763,0a2.906,2.906,0,1,1,2.906,2.906A2.906,2.906,0,0,1,118.581,86.157Zm-19.764,0a2.906,2.906,0,1,1,2.908,2.906A2.907,2.907,0,0,1,98.817,86.157Zm-19.764,0a2.907,2.907,0,1,1,2.907,2.906A2.907,2.907,0,0,1,79.053,86.157Zm-19.762,0a2.906,2.906,0,1,1,2.9,2.906A2.905,2.905,0,0,1,59.291,86.157Zm-19.763,0a2.906,2.906,0,1,1,2.906,2.906A2.906,2.906,0,0,1,39.527,86.157Zm-19.764,0a2.906,2.906,0,1,1,2.906,2.906A2.907,2.907,0,0,1,19.763,86.157ZM0,86.157a2.906,2.906,0,1,1,2.906,2.906A2.907,2.907,0,0,1,0,86.157ZM177.871,65.232a2.907,2.907,0,1,1,2.906,2.905A2.906,2.906,0,0,1,177.871,65.232Zm-19.764,0a2.906,2.906,0,1,1,2.906,2.905A2.907,2.907,0,0,1,158.108,65.232Zm-19.763,0a2.906,2.906,0,1,1,2.906,2.905A2.907,2.907,0,0,1,138.344,65.232Zm-19.763,0a2.906,2.906,0,1,1,2.906,2.905A2.907,2.907,0,0,1,118.581,65.232Zm-19.764,0a2.906,2.906,0,1,1,2.908,2.905A2.907,2.907,0,0,1,98.817,65.232Zm-19.764,0a2.907,2.907,0,1,1,2.907,2.905A2.908,2.908,0,0,1,79.053,65.232Zm-19.762,0a2.906,2.906,0,1,1,2.9,2.905A2.905,2.905,0,0,1,59.291,65.232Zm-19.763,0a2.906,2.906,0,1,1,2.906,2.905A2.906,2.906,0,0,1,39.527,65.232Zm-19.764,0a2.906,2.906,0,1,1,2.906,2.905A2.907,2.907,0,0,1,19.763,65.232ZM0,65.232a2.906,2.906,0,1,1,2.906,2.905A2.907,2.907,0,0,1,0,65.232ZM177.871,44.305a2.907,2.907,0,1,1,2.906,2.905A2.907,2.907,0,0,1,177.871,44.305Zm-19.764,0a2.906,2.906,0,1,1,2.906,2.905A2.907,2.907,0,0,1,158.108,44.305Zm-19.763,0a2.906,2.906,0,1,1,2.906,2.905A2.908,2.908,0,0,1,138.344,44.305Zm-19.763,0a2.906,2.906,0,1,1,2.906,2.905A2.908,2.908,0,0,1,118.581,44.305Zm-19.764,0a2.906,2.906,0,1,1,2.908,2.905A2.908,2.908,0,0,1,98.817,44.305Zm-19.764,0A2.907,2.907,0,1,1,81.96,47.21,2.908,2.908,0,0,1,79.053,44.305Zm-19.762,0a2.906,2.906,0,1,1,2.9,2.905A2.906,2.906,0,0,1,59.291,44.305Zm-19.763,0a2.906,2.906,0,1,1,2.906,2.905A2.907,2.907,0,0,1,39.527,44.305Zm-19.764,0A2.906,2.906,0,1,1,22.67,47.21,2.908,2.908,0,0,1,19.763,44.305ZM0,44.305A2.906,2.906,0,1,1,2.906,47.21,2.908,2.908,0,0,1,0,44.305ZM177.871,23.379a2.907,2.907,0,1,1,2.906,2.906A2.906,2.906,0,0,1,177.871,23.379Zm-19.764,0a2.906,2.906,0,1,1,2.906,2.906A2.906,2.906,0,0,1,158.108,23.379Zm-19.763,0a2.906,2.906,0,1,1,2.906,2.906A2.907,2.907,0,0,1,138.344,23.379Zm-19.763,0a2.906,2.906,0,1,1,2.906,2.906A2.906,2.906,0,0,1,118.581,23.379Zm-19.764,0a2.906,2.906,0,1,1,2.908,2.906A2.907,2.907,0,0,1,98.817,23.379Zm-19.764,0a2.907,2.907,0,1,1,2.907,2.906A2.907,2.907,0,0,1,79.053,23.379Zm-19.762,0a2.906,2.906,0,1,1,2.9,2.906A2.905,2.905,0,0,1,59.291,23.379Zm-19.763,0a2.906,2.906,0,1,1,2.906,2.906A2.906,2.906,0,0,1,39.527,23.379Zm-19.764,0a2.906,2.906,0,1,1,2.906,2.906A2.907,2.907,0,0,1,19.763,23.379ZM0,23.379a2.906,2.906,0,1,1,2.906,2.906A2.907,2.907,0,0,1,0,23.379ZM177.871,2.453A2.906,2.906,0,0,1,179.218,0h3.12a2.906,2.906,0,1,1-4.467,2.453Zm-19.764,0A2.907,2.907,0,0,1,159.454,0h3.12a2.906,2.906,0,1,1-4.467,2.453Zm-19.763,0A2.907,2.907,0,0,1,139.691,0h3.12a2.906,2.906,0,1,1-4.466,2.453Zm-19.763,0A2.906,2.906,0,0,1,119.927,0h3.12a2.906,2.906,0,1,1-4.466,2.453Zm-19.764,0A2.906,2.906,0,0,1,100.164,0h3.12a2.906,2.906,0,1,1-4.467,2.453Zm-19.764,0A2.905,2.905,0,0,1,80.4,0h3.12a2.907,2.907,0,1,1-4.468,2.453Zm-19.762,0A2.906,2.906,0,0,1,60.636,0h3.12a2.906,2.906,0,1,1-4.466,2.453Zm-19.763,0A2.906,2.906,0,0,1,40.874,0h3.119a2.906,2.906,0,1,1-4.466,2.453Zm-19.764,0A2.906,2.906,0,0,1,21.11,0h3.12a2.906,2.906,0,1,1-4.466,2.453ZM0,2.453A2.906,2.906,0,0,1,1.346,0h3.12A2.906,2.906,0,1,1,0,2.453Z" transform="translate(1521.056 1354.162)" fill="url(#linear-gradient)"/>
  </g>
</svg>
