<svg xmlns="http://www.w3.org/2000/svg" xmlns:xlink="http://www.w3.org/1999/xlink" width="151.104" height="159.337" viewBox="0 0 151.104 159.337">
  <defs>
    <linearGradient id="linear-gradient" x1="1.106" y1="0.5" x2="-0.097" y2="0.5" gradientUnits="objectBoundingBox">
      <stop offset="0" stop-color="#fff"/>
      <stop offset="0.504" stop-color="#daa000"/>
      <stop offset="1" stop-color="#fff"/>
    </linearGradient>
  </defs>
  <g id="grid-yellow-for-bgw" transform="translate(0 0)">
    <path id="Intersection_1" data-name="Intersection 1" d="M146.321,156.945a2.391,2.391,0,1,1,2.391,2.392A2.39,2.39,0,0,1,146.321,156.945Zm-16.258,0a2.391,2.391,0,1,1,2.391,2.392A2.39,2.39,0,0,1,130.063,156.945Zm-16.258,0a2.391,2.391,0,1,1,2.391,2.392A2.39,2.39,0,0,1,113.805,156.945Zm-16.258,0a2.391,2.391,0,1,1,2.391,2.392A2.39,2.39,0,0,1,97.547,156.945Zm-16.258,0a2.391,2.391,0,1,1,2.392,2.392A2.39,2.39,0,0,1,81.289,156.945Zm-16.259,0a2.392,2.392,0,1,1,2.392,2.392A2.391,2.391,0,0,1,65.031,156.945Zm-16.257,0a2.391,2.391,0,1,1,2.39,2.392A2.389,2.389,0,0,1,48.774,156.945Zm-16.258,0a2.39,2.39,0,1,1,2.391,2.392A2.39,2.39,0,0,1,32.516,156.945Zm-16.258,0a2.391,2.391,0,1,1,2.391,2.392A2.39,2.39,0,0,1,16.258,156.945ZM0,156.945a2.391,2.391,0,1,1,2.391,2.392A2.39,2.39,0,0,1,0,156.945Zm146.321-17.214a2.391,2.391,0,1,1,2.391,2.391A2.391,2.391,0,0,1,146.321,139.732Zm-16.258,0a2.391,2.391,0,1,1,2.391,2.391A2.391,2.391,0,0,1,130.063,139.732Zm-16.258,0a2.391,2.391,0,1,1,2.391,2.391A2.391,2.391,0,0,1,113.805,139.732Zm-16.258,0a2.391,2.391,0,1,1,2.391,2.391A2.391,2.391,0,0,1,97.547,139.732Zm-16.258,0a2.391,2.391,0,1,1,2.392,2.391A2.391,2.391,0,0,1,81.289,139.732Zm-16.259,0a2.392,2.392,0,1,1,2.392,2.391A2.392,2.392,0,0,1,65.031,139.732Zm-16.257,0a2.391,2.391,0,1,1,2.39,2.391A2.39,2.39,0,0,1,48.774,139.732Zm-16.258,0a2.39,2.39,0,1,1,2.391,2.391A2.391,2.391,0,0,1,32.516,139.732Zm-16.258,0a2.391,2.391,0,1,1,2.391,2.391A2.391,2.391,0,0,1,16.258,139.732ZM0,139.732a2.391,2.391,0,1,1,2.391,2.391A2.391,2.391,0,0,1,0,139.732Zm146.321-17.215a2.391,2.391,0,1,1,2.391,2.392A2.39,2.39,0,0,1,146.321,122.517Zm-16.258,0a2.391,2.391,0,1,1,2.391,2.392A2.39,2.39,0,0,1,130.063,122.517Zm-16.258,0a2.391,2.391,0,1,1,2.391,2.392A2.39,2.39,0,0,1,113.805,122.517Zm-16.258,0a2.391,2.391,0,1,1,2.391,2.392A2.39,2.39,0,0,1,97.547,122.517Zm-16.258,0a2.391,2.391,0,1,1,2.392,2.392A2.39,2.39,0,0,1,81.289,122.517Zm-16.259,0a2.392,2.392,0,1,1,2.392,2.392A2.391,2.391,0,0,1,65.031,122.517Zm-16.257,0a2.391,2.391,0,1,1,2.39,2.392A2.389,2.389,0,0,1,48.774,122.517Zm-16.258,0a2.39,2.39,0,1,1,2.391,2.392A2.39,2.39,0,0,1,32.516,122.517Zm-16.258,0a2.391,2.391,0,1,1,2.391,2.392A2.39,2.39,0,0,1,16.258,122.517ZM0,122.517a2.391,2.391,0,1,1,2.391,2.392A2.39,2.39,0,0,1,0,122.517ZM146.321,105.3a2.391,2.391,0,1,1,2.391,2.392A2.39,2.39,0,0,1,146.321,105.3Zm-16.258,0a2.391,2.391,0,1,1,2.391,2.392A2.39,2.39,0,0,1,130.063,105.3Zm-16.258,0a2.391,2.391,0,1,1,2.391,2.392A2.39,2.39,0,0,1,113.805,105.3Zm-16.258,0a2.391,2.391,0,1,1,2.391,2.392A2.39,2.39,0,0,1,97.547,105.3Zm-16.258,0a2.391,2.391,0,1,1,2.392,2.392A2.39,2.39,0,0,1,81.289,105.3Zm-16.259,0a2.392,2.392,0,1,1,2.392,2.392A2.391,2.391,0,0,1,65.031,105.3Zm-16.257,0a2.391,2.391,0,1,1,2.39,2.392A2.389,2.389,0,0,1,48.774,105.3Zm-16.258,0a2.39,2.39,0,1,1,2.391,2.392A2.39,2.39,0,0,1,32.516,105.3Zm-16.258,0a2.391,2.391,0,1,1,2.391,2.392A2.39,2.39,0,0,1,16.258,105.3ZM0,105.3a2.391,2.391,0,1,1,2.391,2.392A2.39,2.39,0,0,1,0,105.3ZM146.321,88.089a2.391,2.391,0,1,1,2.391,2.391A2.391,2.391,0,0,1,146.321,88.089Zm-16.258,0a2.391,2.391,0,1,1,2.391,2.391A2.392,2.392,0,0,1,130.063,88.089Zm-16.258,0A2.391,2.391,0,1,1,116.2,90.48,2.392,2.392,0,0,1,113.805,88.089Zm-16.258,0a2.391,2.391,0,1,1,2.391,2.391A2.392,2.392,0,0,1,97.547,88.089Zm-16.258,0a2.391,2.391,0,1,1,2.392,2.391A2.392,2.392,0,0,1,81.289,88.089Zm-16.259,0a2.392,2.392,0,1,1,2.392,2.391A2.393,2.393,0,0,1,65.031,88.089Zm-16.257,0a2.391,2.391,0,1,1,2.39,2.391A2.391,2.391,0,0,1,48.774,88.089Zm-16.258,0a2.39,2.39,0,1,1,2.391,2.391A2.392,2.392,0,0,1,32.516,88.089Zm-16.258,0a2.391,2.391,0,1,1,2.391,2.391A2.392,2.392,0,0,1,16.258,88.089ZM0,88.089A2.391,2.391,0,1,1,2.391,90.48,2.392,2.392,0,0,1,0,88.089ZM146.321,70.875a2.391,2.391,0,1,1,2.391,2.391A2.391,2.391,0,0,1,146.321,70.875Zm-16.258,0a2.391,2.391,0,1,1,2.391,2.391A2.391,2.391,0,0,1,130.063,70.875Zm-16.258,0a2.391,2.391,0,1,1,2.391,2.391A2.391,2.391,0,0,1,113.805,70.875Zm-16.258,0a2.391,2.391,0,1,1,2.391,2.391A2.391,2.391,0,0,1,97.547,70.875Zm-16.258,0a2.391,2.391,0,1,1,2.392,2.391A2.391,2.391,0,0,1,81.289,70.875Zm-16.259,0a2.392,2.392,0,1,1,2.392,2.391A2.392,2.392,0,0,1,65.031,70.875Zm-16.257,0a2.391,2.391,0,1,1,2.39,2.391A2.39,2.39,0,0,1,48.774,70.875Zm-16.258,0a2.39,2.39,0,1,1,2.391,2.391A2.391,2.391,0,0,1,32.516,70.875Zm-16.258,0a2.391,2.391,0,1,1,2.391,2.391A2.391,2.391,0,0,1,16.258,70.875ZM0,70.875a2.391,2.391,0,1,1,2.391,2.391A2.391,2.391,0,0,1,0,70.875ZM146.321,53.661a2.391,2.391,0,1,1,2.391,2.39A2.391,2.391,0,0,1,146.321,53.661Zm-16.258,0a2.391,2.391,0,1,1,2.391,2.39A2.391,2.391,0,0,1,130.063,53.661Zm-16.258,0a2.391,2.391,0,1,1,2.391,2.39A2.391,2.391,0,0,1,113.805,53.661Zm-16.258,0a2.391,2.391,0,1,1,2.391,2.39A2.391,2.391,0,0,1,97.547,53.661Zm-16.258,0a2.391,2.391,0,1,1,2.392,2.39A2.391,2.391,0,0,1,81.289,53.661Zm-16.259,0a2.392,2.392,0,1,1,2.392,2.39A2.392,2.392,0,0,1,65.031,53.661Zm-16.257,0a2.391,2.391,0,1,1,2.39,2.39A2.39,2.39,0,0,1,48.774,53.661Zm-16.258,0a2.39,2.39,0,1,1,2.391,2.39A2.391,2.391,0,0,1,32.516,53.661Zm-16.258,0a2.391,2.391,0,1,1,2.391,2.39A2.391,2.391,0,0,1,16.258,53.661ZM0,53.661a2.391,2.391,0,1,1,2.391,2.39A2.391,2.391,0,0,1,0,53.661ZM146.321,36.446a2.391,2.391,0,1,1,2.391,2.39A2.391,2.391,0,0,1,146.321,36.446Zm-16.258,0a2.391,2.391,0,1,1,2.391,2.39A2.392,2.392,0,0,1,130.063,36.446Zm-16.258,0a2.391,2.391,0,1,1,2.391,2.39A2.392,2.392,0,0,1,113.805,36.446Zm-16.258,0a2.391,2.391,0,1,1,2.391,2.39A2.392,2.392,0,0,1,97.547,36.446Zm-16.258,0a2.391,2.391,0,1,1,2.392,2.39A2.392,2.392,0,0,1,81.289,36.446Zm-16.259,0a2.392,2.392,0,1,1,2.392,2.39A2.393,2.393,0,0,1,65.031,36.446Zm-16.257,0a2.391,2.391,0,1,1,2.39,2.39A2.391,2.391,0,0,1,48.774,36.446Zm-16.258,0a2.39,2.39,0,1,1,2.391,2.39A2.392,2.392,0,0,1,32.516,36.446Zm-16.258,0a2.391,2.391,0,1,1,2.391,2.39A2.392,2.392,0,0,1,16.258,36.446ZM0,36.446a2.391,2.391,0,1,1,2.391,2.39A2.392,2.392,0,0,1,0,36.446ZM146.321,19.232a2.391,2.391,0,1,1,2.391,2.391A2.391,2.391,0,0,1,146.321,19.232Zm-16.258,0a2.391,2.391,0,1,1,2.391,2.391A2.391,2.391,0,0,1,130.063,19.232Zm-16.258,0a2.391,2.391,0,1,1,2.391,2.391A2.391,2.391,0,0,1,113.805,19.232Zm-16.258,0a2.391,2.391,0,1,1,2.391,2.391A2.391,2.391,0,0,1,97.547,19.232Zm-16.258,0a2.391,2.391,0,1,1,2.392,2.391A2.391,2.391,0,0,1,81.289,19.232Zm-16.259,0a2.392,2.392,0,1,1,2.392,2.391A2.392,2.392,0,0,1,65.031,19.232Zm-16.257,0a2.391,2.391,0,1,1,2.39,2.391A2.39,2.39,0,0,1,48.774,19.232Zm-16.258,0a2.39,2.39,0,1,1,2.391,2.391A2.391,2.391,0,0,1,32.516,19.232Zm-16.258,0a2.391,2.391,0,1,1,2.391,2.391A2.391,2.391,0,0,1,16.258,19.232ZM0,19.232a2.391,2.391,0,1,1,2.391,2.391A2.391,2.391,0,0,1,0,19.232ZM146.321,2.018A2.39,2.39,0,0,1,147.429,0H150a2.391,2.391,0,1,1-3.674,2.018Zm-16.258,0A2.391,2.391,0,0,1,131.171,0h2.567a2.391,2.391,0,1,1-3.674,2.018Zm-16.258,0A2.391,2.391,0,0,1,114.913,0h2.566a2.391,2.391,0,1,1-3.674,2.018Zm-16.258,0A2.391,2.391,0,0,1,98.655,0h2.566a2.391,2.391,0,1,1-3.674,2.018Zm-16.258,0A2.391,2.391,0,0,1,82.4,0h2.566a2.391,2.391,0,1,1-3.674,2.018Zm-16.259,0A2.39,2.39,0,0,1,66.139,0h2.567a2.391,2.391,0,1,1-3.675,2.018Zm-16.257,0A2.391,2.391,0,0,1,49.881,0h2.567a2.391,2.391,0,1,1-3.673,2.018Zm-16.258,0A2.39,2.39,0,0,1,33.624,0h2.566a2.391,2.391,0,1,1-3.673,2.018Zm-16.258,0A2.39,2.39,0,0,1,17.365,0h2.566a2.391,2.391,0,1,1-3.674,2.018ZM0,2.018A2.39,2.39,0,0,1,1.108,0H3.674A2.391,2.391,0,1,1,0,2.018Z" transform="translate(0 0)" fill="url(#linear-gradient)"/>
  </g>
</svg>
