<svg xmlns="http://www.w3.org/2000/svg" xmlns:xlink="http://www.w3.org/1999/xlink" width="128.285" height="135.275" viewBox="0 0 128.285 135.275">
  <defs>
    <linearGradient id="linear-gradient" x1="1" y1="0.5" x2="-0.053" y2="0.5" gradientUnits="objectBoundingBox">
      <stop offset="0" stop-color="#2d435a" stop-opacity="0.012"/>
      <stop offset="0.504" stop-color="#2d435a"/>
      <stop offset="1" stop-color="#2d435a" stop-opacity="0"/>
    </linearGradient>
  </defs>
  <g id="grid-blue-for-bgwy" transform="translate(0 0)">
    <path id="Intersection_1" data-name="Intersection 1" d="M124.225,133.245a2.03,2.03,0,1,1,2.03,2.031A2.029,2.029,0,0,1,124.225,133.245Zm-13.8,0a2.03,2.03,0,1,1,2.03,2.031A2.029,2.029,0,0,1,110.422,133.245Zm-13.8,0a2.03,2.03,0,1,1,2.03,2.031A2.029,2.029,0,0,1,96.619,133.245Zm-13.8,0a2.03,2.03,0,1,1,2.03,2.031A2.029,2.029,0,0,1,82.816,133.245Zm-13.8,0a2.03,2.03,0,1,1,2.031,2.031A2.029,2.029,0,0,1,69.014,133.245Zm-13.8,0a2.03,2.03,0,1,1,2.031,2.031A2.03,2.03,0,0,1,55.21,133.245Zm-13.8,0a2.03,2.03,0,1,1,2.029,2.031A2.028,2.028,0,0,1,41.408,133.245Zm-13.8,0a2.029,2.029,0,1,1,2.03,2.031A2.029,2.029,0,0,1,27.606,133.245Zm-13.8,0a2.03,2.03,0,1,1,2.03,2.031A2.029,2.029,0,0,1,13.8,133.245Zm-13.8,0a2.03,2.03,0,1,1,2.03,2.031A2.029,2.029,0,0,1,0,133.245Zm124.225-14.614a2.03,2.03,0,1,1,2.03,2.03A2.03,2.03,0,0,1,124.225,118.631Zm-13.8,0a2.03,2.03,0,1,1,2.03,2.03A2.03,2.03,0,0,1,110.422,118.631Zm-13.8,0a2.03,2.03,0,1,1,2.03,2.03A2.03,2.03,0,0,1,96.619,118.631Zm-13.8,0a2.03,2.03,0,1,1,2.03,2.03A2.03,2.03,0,0,1,82.816,118.631Zm-13.8,0a2.03,2.03,0,1,1,2.031,2.03A2.03,2.03,0,0,1,69.014,118.631Zm-13.8,0a2.03,2.03,0,1,1,2.031,2.03A2.031,2.031,0,0,1,55.21,118.631Zm-13.8,0a2.03,2.03,0,1,1,2.029,2.03A2.029,2.029,0,0,1,41.408,118.631Zm-13.8,0a2.029,2.029,0,1,1,2.03,2.03A2.03,2.03,0,0,1,27.606,118.631Zm-13.8,0a2.03,2.03,0,1,1,2.03,2.03A2.03,2.03,0,0,1,13.8,118.631Zm-13.8,0a2.03,2.03,0,1,1,2.03,2.03A2.03,2.03,0,0,1,0,118.631Zm124.225-14.615a2.03,2.03,0,1,1,2.03,2.031A2.029,2.029,0,0,1,124.225,104.016Zm-13.8,0a2.03,2.03,0,1,1,2.03,2.031A2.029,2.029,0,0,1,110.422,104.016Zm-13.8,0a2.03,2.03,0,1,1,2.03,2.031A2.029,2.029,0,0,1,96.619,104.016Zm-13.8,0a2.03,2.03,0,1,1,2.03,2.031A2.029,2.029,0,0,1,82.816,104.016Zm-13.8,0a2.03,2.03,0,1,1,2.031,2.031A2.029,2.029,0,0,1,69.014,104.016Zm-13.8,0a2.03,2.03,0,1,1,2.031,2.031A2.03,2.03,0,0,1,55.21,104.016Zm-13.8,0a2.03,2.03,0,1,1,2.029,2.031A2.028,2.028,0,0,1,41.408,104.016Zm-13.8,0a2.029,2.029,0,1,1,2.03,2.031A2.029,2.029,0,0,1,27.606,104.016Zm-13.8,0a2.03,2.03,0,1,1,2.03,2.031A2.029,2.029,0,0,1,13.8,104.016Zm-13.8,0a2.03,2.03,0,1,1,2.03,2.031A2.029,2.029,0,0,1,0,104.016ZM124.225,89.4a2.03,2.03,0,1,1,2.03,2.031A2.029,2.029,0,0,1,124.225,89.4Zm-13.8,0a2.03,2.03,0,1,1,2.03,2.031A2.029,2.029,0,0,1,110.422,89.4Zm-13.8,0a2.03,2.03,0,1,1,2.03,2.031A2.029,2.029,0,0,1,96.619,89.4Zm-13.8,0a2.03,2.03,0,1,1,2.03,2.031A2.029,2.029,0,0,1,82.816,89.4Zm-13.8,0a2.03,2.03,0,1,1,2.031,2.031A2.029,2.029,0,0,1,69.014,89.4Zm-13.8,0a2.03,2.03,0,1,1,2.031,2.031A2.03,2.03,0,0,1,55.21,89.4Zm-13.8,0a2.03,2.03,0,1,1,2.029,2.031A2.028,2.028,0,0,1,41.408,89.4Zm-13.8,0a2.029,2.029,0,1,1,2.03,2.031A2.029,2.029,0,0,1,27.606,89.4Zm-13.8,0a2.03,2.03,0,1,1,2.03,2.031A2.029,2.029,0,0,1,13.8,89.4ZM0,89.4a2.03,2.03,0,1,1,2.03,2.031A2.029,2.029,0,0,1,0,89.4ZM124.225,74.787a2.03,2.03,0,1,1,2.03,2.03A2.03,2.03,0,0,1,124.225,74.787Zm-13.8,0a2.03,2.03,0,1,1,2.03,2.03A2.03,2.03,0,0,1,110.422,74.787Zm-13.8,0a2.03,2.03,0,1,1,2.03,2.03A2.031,2.031,0,0,1,96.619,74.787Zm-13.8,0a2.03,2.03,0,1,1,2.03,2.03A2.031,2.031,0,0,1,82.816,74.787Zm-13.8,0a2.03,2.03,0,1,1,2.031,2.03A2.031,2.031,0,0,1,69.014,74.787Zm-13.8,0a2.03,2.03,0,1,1,2.031,2.03A2.031,2.031,0,0,1,55.21,74.787Zm-13.8,0a2.03,2.03,0,1,1,2.029,2.03A2.03,2.03,0,0,1,41.408,74.787Zm-13.8,0a2.029,2.029,0,1,1,2.03,2.03A2.03,2.03,0,0,1,27.606,74.787Zm-13.8,0a2.03,2.03,0,1,1,2.03,2.03A2.031,2.031,0,0,1,13.8,74.787Zm-13.8,0a2.03,2.03,0,1,1,2.03,2.03A2.031,2.031,0,0,1,0,74.787ZM124.225,60.172a2.03,2.03,0,1,1,2.03,2.03A2.03,2.03,0,0,1,124.225,60.172Zm-13.8,0a2.03,2.03,0,1,1,2.03,2.03A2.03,2.03,0,0,1,110.422,60.172Zm-13.8,0a2.03,2.03,0,1,1,2.03,2.03A2.03,2.03,0,0,1,96.619,60.172Zm-13.8,0a2.03,2.03,0,1,1,2.03,2.03A2.03,2.03,0,0,1,82.816,60.172Zm-13.8,0a2.03,2.03,0,1,1,2.031,2.03A2.03,2.03,0,0,1,69.014,60.172Zm-13.8,0a2.03,2.03,0,1,1,2.031,2.03A2.031,2.031,0,0,1,55.21,60.172Zm-13.8,0a2.03,2.03,0,1,1,2.029,2.03A2.029,2.029,0,0,1,41.408,60.172Zm-13.8,0a2.029,2.029,0,1,1,2.03,2.03A2.03,2.03,0,0,1,27.606,60.172Zm-13.8,0a2.03,2.03,0,1,1,2.03,2.03A2.03,2.03,0,0,1,13.8,60.172Zm-13.8,0A2.03,2.03,0,1,1,2.03,62.2,2.03,2.03,0,0,1,0,60.172ZM124.225,45.558a2.03,2.03,0,1,1,2.03,2.029A2.03,2.03,0,0,1,124.225,45.558Zm-13.8,0a2.03,2.03,0,1,1,2.03,2.029A2.03,2.03,0,0,1,110.422,45.558Zm-13.8,0a2.03,2.03,0,1,1,2.03,2.029A2.03,2.03,0,0,1,96.619,45.558Zm-13.8,0a2.03,2.03,0,1,1,2.03,2.029A2.03,2.03,0,0,1,82.816,45.558Zm-13.8,0a2.03,2.03,0,1,1,2.031,2.029A2.03,2.03,0,0,1,69.014,45.558Zm-13.8,0a2.03,2.03,0,1,1,2.031,2.029A2.031,2.031,0,0,1,55.21,45.558Zm-13.8,0a2.03,2.03,0,1,1,2.029,2.029A2.029,2.029,0,0,1,41.408,45.558Zm-13.8,0a2.029,2.029,0,1,1,2.03,2.029A2.03,2.03,0,0,1,27.606,45.558Zm-13.8,0a2.03,2.03,0,1,1,2.03,2.029A2.03,2.03,0,0,1,13.8,45.558Zm-13.8,0a2.03,2.03,0,1,1,2.03,2.029A2.03,2.03,0,0,1,0,45.558ZM124.225,30.943a2.03,2.03,0,1,1,2.03,2.029A2.03,2.03,0,0,1,124.225,30.943Zm-13.8,0a2.03,2.03,0,1,1,2.03,2.029A2.03,2.03,0,0,1,110.422,30.943Zm-13.8,0a2.03,2.03,0,1,1,2.03,2.029A2.031,2.031,0,0,1,96.619,30.943Zm-13.8,0a2.03,2.03,0,1,1,2.03,2.029A2.031,2.031,0,0,1,82.816,30.943Zm-13.8,0a2.03,2.03,0,1,1,2.031,2.029A2.031,2.031,0,0,1,69.014,30.943Zm-13.8,0a2.03,2.03,0,1,1,2.031,2.029A2.031,2.031,0,0,1,55.21,30.943Zm-13.8,0a2.03,2.03,0,1,1,2.029,2.029A2.03,2.03,0,0,1,41.408,30.943Zm-13.8,0a2.029,2.029,0,1,1,2.03,2.029A2.03,2.03,0,0,1,27.606,30.943Zm-13.8,0a2.03,2.03,0,1,1,2.03,2.029A2.031,2.031,0,0,1,13.8,30.943Zm-13.8,0a2.03,2.03,0,1,1,2.03,2.029A2.031,2.031,0,0,1,0,30.943ZM124.225,16.328a2.03,2.03,0,1,1,2.03,2.03A2.03,2.03,0,0,1,124.225,16.328Zm-13.8,0a2.03,2.03,0,1,1,2.03,2.03A2.03,2.03,0,0,1,110.422,16.328Zm-13.8,0a2.03,2.03,0,1,1,2.03,2.03A2.03,2.03,0,0,1,96.619,16.328Zm-13.8,0a2.03,2.03,0,1,1,2.03,2.03A2.03,2.03,0,0,1,82.816,16.328Zm-13.8,0a2.03,2.03,0,1,1,2.031,2.03A2.03,2.03,0,0,1,69.014,16.328Zm-13.8,0a2.03,2.03,0,1,1,2.031,2.03A2.03,2.03,0,0,1,55.21,16.328Zm-13.8,0a2.03,2.03,0,1,1,2.029,2.03A2.029,2.029,0,0,1,41.408,16.328Zm-13.8,0a2.029,2.029,0,1,1,2.03,2.03A2.03,2.03,0,0,1,27.606,16.328Zm-13.8,0a2.03,2.03,0,1,1,2.03,2.03A2.03,2.03,0,0,1,13.8,16.328Zm-13.8,0a2.03,2.03,0,1,1,2.03,2.03A2.03,2.03,0,0,1,0,16.328ZM124.225,1.713A2.029,2.029,0,0,1,125.165,0h2.179a2.03,2.03,0,1,1-3.119,1.713Zm-13.8,0A2.03,2.03,0,0,1,111.362,0h2.179a2.03,2.03,0,1,1-3.119,1.713Zm-13.8,0A2.03,2.03,0,0,1,97.56,0h2.179a2.03,2.03,0,1,1-3.119,1.713Zm-13.8,0A2.03,2.03,0,0,1,83.757,0h2.179a2.03,2.03,0,1,1-3.119,1.713Zm-13.8,0A2.03,2.03,0,0,1,69.954,0h2.179a2.03,2.03,0,1,1-3.119,1.713Zm-13.8,0A2.029,2.029,0,0,1,56.151,0H58.33a2.03,2.03,0,1,1-3.12,1.713Zm-13.8,0A2.03,2.03,0,0,1,42.348,0h2.179a2.03,2.03,0,1,1-3.119,1.713Zm-13.8,0A2.029,2.029,0,0,1,28.546,0h2.178a2.03,2.03,0,1,1-3.119,1.713Zm-13.8,0A2.029,2.029,0,0,1,14.743,0h2.179A2.03,2.03,0,1,1,13.8,1.713ZM0,1.713A2.029,2.029,0,0,1,.94,0H3.119A2.03,2.03,0,1,1,0,1.713Z" transform="translate(0 0)" fill="url(#linear-gradient)"/>
  </g>
</svg>
