<svg xmlns="http://www.w3.org/2000/svg" width="198.028" height="278.415" viewBox="0 0 198.028 278.415">
  <path id="icon-md-d" d="M187.027,0l-.02.016h-.224a186.034,186.034,0,0,0-162.344,278.4H79.371A144.272,144.272,0,0,1,45.492,185.6c0-79.681,65.09-144.507,145.1-144.507h7.438V0h-11Zm-2.755,82.173a92.073,92.073,0,0,0-68.062,30.485,109.336,109.336,0,0,0,0,147.212,91.721,91.721,0,0,0,23.1,18.545h58.717V83.242a90.522,90.522,0,0,0-13.755-1.069Z" transform="translate(198.028 278.415) rotate(180)" fill="#2d435a" opacity="0.1"/>
</svg>
