<svg xmlns="http://www.w3.org/2000/svg" width="648.654" height="437.08" viewBox="0 0 648.654 437.08">
  <g id="illustration-e-commerce" transform="translate(-148.544 -109.196)">
    <g id="Groupe_756" data-name="Groupe 756" transform="translate(148.544 109.196)">
      <path id="Tracé_151" data-name="Tracé 151" d="M295.033,894.36c-17.694,0-32.037-4.745-32.037-10.6s14.344-10.6,32.037-10.6,32.037,4.745,32.037,10.6S312.727,894.36,295.033,894.36Z" transform="translate(-218.022 -572.958)" fill="#cbd4f3"/>
      <path id="Tracé_152" data-name="Tracé 152" d="M544.827,1071.7c-5.936,0-11.941-1.309-16.134-3.816a10.573,10.573,0,0,1-4.361-4.346,39.546,39.546,0,0,1-7.57.707c-6.305,0-12.683-1.391-17.137-4.051-7.7-4.605-6.739-11.274,2.153-14.889a35,35,0,0,1,12.907-2.263c6.307,0,12.685,1.391,17.139,4.055,2.586,1.544,4.191,3.324,4.851,5.14a37.835,37.835,0,0,1,6.2-.5c5.936,0,11.939,1.309,16.132,3.816,7.251,4.334,6.344,10.61-2.026,14.013A32.967,32.967,0,0,1,544.827,1071.7Z" transform="translate(-358.509 -676.083)" fill="#c1ceee"/>
      <path id="Tracé_153" data-name="Tracé 153" d="M615.964,1070.794l5.642-6.912a7.879,7.879,0,0,1,3.988-.955,1.251,1.251,0,0,1,1.186,1.033l.228,1.25c.391,1.792.256,2.071-.792,2.837l-6.225,4.535a4.255,4.255,0,0,1-3.773.558l-.291-.13C614.9,1072.554,614.915,1071.56,615.964,1070.794Z" transform="translate(-431.805 -688.154)" fill="#0f1a5c"/>
      <path id="Tracé_154" data-name="Tracé 154" d="M331.469,650.612c0,11.039-10.063,23.712-22.654,23.712s-25.271-10.138-25.271-21.177,10.208-19.988,22.8-19.988S331.469,639.573,331.469,650.612Z" transform="translate(-230.495 -427.266)" fill="#a8bff7"/>
      <path id="Tracé_155" data-name="Tracé 155" d="M339.864,762.737a3.985,3.985,0,0,1-3.973-3.973v-86.27a3.973,3.973,0,1,1,7.946,0v86.27A3.985,3.985,0,0,1,339.864,762.737Z" transform="translate(-262.272 -448.732)" fill="#4255a6"/>
      <path id="Tracé_156" data-name="Tracé 156" d="M275.222,585.336c0,15.987-10.819,33.066-29.054,33.066S211.7,606.352,211.7,590.365s12.27-33.976,30.5-33.976S275.222,569.349,275.222,585.336Z" transform="translate(-186.883 -380.663)" fill="#a8bff7"/>
      <path id="Tracé_157" data-name="Tracé 157" d="M355.364,570.566c0,15.987-14.782,24.66-33.017,24.66s-33.017-12.96-33.017-28.947,14.782-28.947,33.017-28.947S355.364,554.579,355.364,570.566Z" transform="translate(-234.008 -369.095)" fill="#a8bff7"/>
      <path id="Tracé_158" data-name="Tracé 158" d="M294.442,523.5c8.524,7.292,8.691,21.086.372,30.808s-21.971,11.692-30.495,4.4-5.555-24.184,2.763-33.906S285.918,516.212,294.442,523.5Z" transform="translate(-215.721 -357.222)" fill="#a8bff7"/>
      <path id="Tracé_159" data-name="Tracé 159" d="M313,537.565c-.813,3.647-5.906,5.614-11.374,4.394s-9.241-5.165-8.427-8.812,5.906-5.614,11.374-4.394S313.811,533.918,313,537.565Z" transform="translate(-236.288 -363.667)" fill="#cfe0ff"/>
      <path id="Tracé_160" data-name="Tracé 160" d="M379.737,581.212c-2.7,6.951-13.333,9.307-23.756,5.262s-16.685-12.959-13.987-19.91,13.334-9.307,23.756-5.262S382.435,574.261,379.737,581.212Z" transform="translate(-265.597 -382.445)" fill="#cfe0ff"/>
      <path id="Tracé_161" data-name="Tracé 161" d="M1127.41,869.3l127.62-171.76,136.386,74.144-113.273,80.333-11.6,1.332-.7-.421a5.227,5.227,0,0,0-2.6-.633,5.17,5.17,0,0,0-2.5.586l-2.515,1.418-18.681,2.142c.2-.11.4-.22.605-.338,7.564-4.417,6.688-10.932-1.953-14.551a34.422,34.422,0,0,0-13.007-2.342c-6.016,0-12.072,1.293-16.343,3.788-7.564,4.417-6.692,10.932,1.953,14.551a28.1,28.1,0,0,0,5.25,1.588Zm181.371-119.938c-17.176,0-31.1,8.841-31.1,19.747s13.922,19.747,31.1,19.747c11.419,0,21.4-3.913,26.8-9.741a31.025,31.025,0,0,0,4.024.261c10.936,0,19.8-5.63,19.8-12.575s-8.865-12.575-19.8-12.575a29.45,29.45,0,0,0-8.413,1.2C1325.537,751.693,1317.592,749.363,1308.782,749.363Z" transform="translate(-742.761 -466.349)" fill="#c1ceee"/>
      <path id="Tracé_162" data-name="Tracé 162" d="M1540.928,868.914c-17.176,0-31.1-8.841-31.1-19.747s13.922-19.747,31.1-19.747c8.81,0,16.756,2.33,22.414,6.068a29.45,29.45,0,0,1,8.413-1.2c10.936,0,19.8,5.63,19.8,12.575s-8.865,12.575-19.8,12.575a31.028,31.028,0,0,1-4.024-.261C1562.325,865,1552.348,868.914,1540.928,868.914Z" transform="translate(-974.908 -546.405)" fill="#b0c0e9"/>
      <path id="Tracé_163" data-name="Tracé 163" d="M1584.545,650.612c0,11.039-10.063,23.712-22.654,23.712s-25.271-10.138-25.271-21.177,10.209-19.988,22.8-19.988S1584.545,639.573,1584.545,650.612Z" transform="translate(-991.171 -427.266)" fill="#a8bff7"/>
      <path id="Tracé_164" data-name="Tracé 164" d="M1592.943,762.737a3.985,3.985,0,0,1-3.973-3.973v-86.27a3.973,3.973,0,1,1,7.946,0v86.27A3.985,3.985,0,0,1,1592.943,762.737Z" transform="translate(-1022.95 -448.732)" fill="#4255a6"/>
      <path id="Tracé_165" data-name="Tracé 165" d="M1528.3,585.336c0,15.987-10.822,33.066-29.055,33.066s-34.466-12.05-34.466-28.037,12.268-33.976,30.5-33.976S1528.3,569.349,1528.3,585.336Z" transform="translate(-947.561 -380.663)" fill="#a8bff7"/>
      <path id="Tracé_166" data-name="Tracé 166" d="M1608.436,570.566c0,15.987-14.783,24.66-33.016,24.66s-33.02-12.96-33.02-28.947,14.783-28.947,33.02-28.947S1608.436,554.579,1608.436,570.566Z" transform="translate(-994.68 -369.095)" fill="#a8bff7"/>
      <path id="Tracé_167" data-name="Tracé 167" d="M1594.222,743.249a86.218,86.218,0,0,0,37.056-16.99c3.918-3.045-1.58-8.47-5.458-5.456a78.293,78.293,0,0,1-33.649,15.005C1587.3,736.74,1589.361,744.179,1594.222,743.249Z" transform="translate(-1023.204 -479.934)" fill="#4255a6"/>
      <path id="Tracé_168" data-name="Tracé 168" d="M1668.833,697.725c0,11.218-10.37,20.312-23.165,20.312s-23.169-9.094-23.169-20.312,14.763-19.942,27.558-19.942S1668.833,686.507,1668.833,697.725Z" transform="translate(-1043.304 -454.355)" fill="#a8bff7"/>
      <path id="Tracé_169" data-name="Tracé 169" d="M1547.516,523.5c8.523,7.292,8.692,21.086.373,30.808s-21.97,11.692-30.5,4.4-5.552-24.184,2.766-33.906S1538.993,516.212,1547.516,523.5Z" transform="translate(-976.396 -357.222)" fill="#a8bff7"/>
      <path id="Tracé_170" data-name="Tracé 170" d="M1674.023,740.62c0,7.646-6.971,16.423-15.691,16.423s-17.5-7.021-17.5-14.667,7.069-13.845,15.789-13.845S1674.023,732.975,1674.023,740.62Z" transform="translate(-1054.431 -485.162)" fill="#a8bff7"/>
      <path id="Tracé_171" data-name="Tracé 171" d="M1699.615,698.7c-1.006,3.6-6.2,5.292-11.592,3.783s-8.952-5.65-7.946-9.248,6.2-5.292,11.592-3.783S1700.621,695.1,1699.615,698.7Z" transform="translate(-1078.153 -461.104)" fill="#cfe0ff"/>
      <path id="Tracé_172" data-name="Tracé 172" d="M1566.07,537.565c-.813,3.647-5.906,5.614-11.372,4.394s-9.242-5.165-8.429-8.812,5.906-5.614,11.376-4.394S1566.884,533.918,1566.07,537.565Z" transform="translate(-996.962 -363.667)" fill="#cfe0ff"/>
      <path id="Tracé_173" data-name="Tracé 173" d="M1632.814,581.212c-2.7,6.951-13.337,9.307-23.758,5.262s-16.685-12.959-13.985-19.91,13.333-9.307,23.754-5.262S1635.51,574.261,1632.814,581.212Z" transform="translate(-1026.273 -382.445)" fill="#cfe0ff"/>
      <g id="Groupe_755" data-name="Groupe 755" transform="translate(284.268 117.239)">
        <path id="Tracé_174" data-name="Tracé 174" d="M873.39,410.785l-1.433,226.464,100.381,57.977V478.846Z" transform="translate(-871.957 -410.785)" fill="#2d435a"/>
      </g>
      <path id="Tracé_175" data-name="Tracé 175" d="M1127.41,476.884v216.38l136.87-79.019V407.552Z" transform="translate(-742.761 -290.312)" fill="#2d435a"/>
      <path id="Tracé_176" data-name="Tracé 176" d="M915.379,364.375,778.121,285.129l137.254-79.243,137.255,79.245Z" transform="translate(-530.727 -167.891)" fill="#2d435a"/>
      <path id="Tracé_177" data-name="Tracé 177" d="M955.985,367.155l-112.294-65.72,111.716-64.5L1067.584,301.7Z" transform="translate(-570.531 -186.74)" fill="#3660d6"/>
      <path id="Tracé_178" data-name="Tracé 178" d="M955,250.3l99.256,57.3,13.329-7.525L955,234.258l-111.308,64.5,14.784,8.653Z" transform="translate(-570.531 -185.115)" fill="#1c46b8"/>
      <path id="Tracé_179" data-name="Tracé 179" d="M928.824,572.7l24.541,14.232V536.6L928.824,522.37Z" transform="translate(-622.21 -360.012)" fill="#1c46b8"/>
      <path id="Tracé_180" data-name="Tracé 180" d="M935.846,526.441v40.11l17.519,10.473v9.906L928.824,572.7V522.37Z" transform="translate(-622.21 -360.012)" fill="#3058c7"/>
      <path id="Tracé_181" data-name="Tracé 181" d="M1022.79,626.413l24.54,14.232V590.316l-24.54-14.232Z" transform="translate(-679.252 -392.619)" fill="#1c46b8"/>
      <path id="Tracé_182" data-name="Tracé 182" d="M1029.808,580.156v40.135l17.522,10.448v9.906l-24.54-14.232V576.084Z" transform="translate(-679.252 -392.619)" fill="#3058c7"/>
      <path id="Tracé_183" data-name="Tracé 183" d="M658.766,506.577,550.748,434.943c-6.756-3.9-12.233-14.364-12.233-23.372V175.81c0-9.008,5.477-13.148,12.232-9.247l112.78,65.114c6.756,3.9,12.232,14.364,12.232,23.372V489.695c0,5.927-2.217,8.4-5.946,10.552Z" transform="translate(-385.275 -143.129)" fill="#bad0f2"/>
      <path id="Tracé_184" data-name="Tracé 184" d="M581.539,284.743S523.712,419.987,523.712,410.98l-9.5-238.4,14.175-7.486c2.08-.98,4.7-.767,7.556.88l112.78,65.114c3.3,1.9,6.292,5.374,8.492,9.475Z" transform="translate(-370.522 -142.77)" fill="#ebf3ff"/>
      <path id="Tracé_185" data-name="Tracé 185" d="M635.474,514.706,522.97,449.59c-6.756-3.9-11.955-14.364-11.955-23.372V190.457c0-9.008,5.334-13.148,12.089-9.247l112.44,65.114c6.756,3.9,11.893,14.364,11.893,23.372V505.456C647.438,514.462,642.229,518.6,635.474,514.706Z" transform="translate(-368.581 -152.02)" fill="#fff"/>
      <path id="Tracé_186" data-name="Tracé 186" d="M629.732,516.83l-112.5-65.113c-6.756-3.9-11.955-14.365-11.955-23.372V192.583c0-9.008,5.333-13.148,12.089-9.248L629.8,248.45c6.756,3.9,11.893,14.364,11.893,23.372V507.584C641.7,516.59,636.488,520.732,629.732,516.83Z" transform="translate(-365.096 -153.311)" fill="#0f1a5c"/>
      <path id="Tracé_187" data-name="Tracé 187" d="M645.444,285.008l-109.691-63.33a3.687,3.687,0,0,0-5.531,3.193V455.126a3.688,3.688,0,0,0,1.844,3.193l109.691,63.33a3.687,3.687,0,0,0,5.531-3.193V288.2A3.687,3.687,0,0,0,645.444,285.008Z" transform="translate(-380.24 -177.174)" fill="#c4daff"/>
      <path id="Tracé_188" data-name="Tracé 188" d="M867.7,468.827a1.784,1.784,0,0,1-2.684-1.753V456.337A4.776,4.776,0,0,1,867.7,452.3a1.784,1.784,0,0,1,2.684,1.753v10.738A4.775,4.775,0,0,1,867.7,468.827Z" transform="translate(-583.477 -317.344)" fill="#fff"/>
      <path id="Tracé_189" data-name="Tracé 189" d="M870.634,469.193a1.785,1.785,0,0,1-2.684-1.753V456.7a4.776,4.776,0,0,1,2.684-4.038,1.784,1.784,0,0,1,2.684,1.753v10.738A4.774,4.774,0,0,1,870.634,469.193Z" transform="translate(-585.257 -317.566)" fill="#6899e3"/>
      <path id="Tracé_190" data-name="Tracé 190" d="M867.7,518.566a1.785,1.785,0,0,1-2.684-1.753V506.075a4.776,4.776,0,0,1,2.684-4.038,1.785,1.785,0,0,1,2.684,1.753v10.738A4.776,4.776,0,0,1,867.7,518.566Z" transform="translate(-583.477 -347.537)" fill="#fff"/>
      <path id="Tracé_191" data-name="Tracé 191" d="M870.634,518.932a1.785,1.785,0,0,1-2.684-1.753V506.441a4.776,4.776,0,0,1,2.684-4.038,1.785,1.785,0,0,1,2.684,1.753v10.737A4.775,4.775,0,0,1,870.634,518.932Z" transform="translate(-585.257 -347.76)" fill="#6899e3"/>
      <path id="Tracé_192" data-name="Tracé 192" d="M445.718,311.871,431.037,303.4l34.609-37.536,16.467,8.872Z" transform="translate(-320.03 -204.298)" fill="#fff"/>
      <path id="Tracé_193" data-name="Tracé 193" d="M483.077,334.3l-14.68-8.476,34.095-36.978,16.467,8.872Z" transform="translate(-342.71 -218.253)" fill="#daa000"/>
      <path id="Tracé_194" data-name="Tracé 194" d="M520.437,356.733l-14.681-8.476,33.581-36.421,16.467,8.872Z" transform="translate(-365.388 -232.209)" fill="#fff"/>
      <path id="Tracé_195" data-name="Tracé 195" d="M557.8,377.719l-14.68-8.476,33.93-36.8,17.048,8.338Z" transform="translate(-388.068 -244.718)" fill="#daa000"/>
      <path id="Tracé_196" data-name="Tracé 196" d="M595.239,395.916l-14.764-8.524,35.971-39.013,15.46,11.215Z" transform="translate(-410.746 -254.391)" fill="#fff"/>
      <path id="Tracé_197" data-name="Tracé 197" d="M632.729,420.625l-14.683-8.478,34.941-37.03,17.361,7.129Z" transform="translate(-433.554 -270.622)" fill="#daa000"/>
      <path id="Tracé_198" data-name="Tracé 198" d="M670.365,440.271l-14.952-8.632,36.169-38.378,16.63,9.444Z" transform="translate(-456.237 -281.636)" fill="#fff"/>
      <path id="Tracé_199" data-name="Tracé 199" d="M637.463,300.826,517.49,234.508v-21.4l3.091-2.171,117.353,68Z" transform="translate(-372.511 -170.956)" fill="#daa000"/>
      <path id="Tracé_200" data-name="Tracé 200" d="M438.906,383.607l-1.021-.59c-3.782-2.183-6.848-8.041-6.848-13.084v-8.582l14.716,8.5v8.582C445.754,383.472,442.688,385.79,438.906,383.607Z" transform="translate(-320.03 -262.266)" fill="#edf4ff"/>
      <path id="Tracé_201" data-name="Tracé 201" d="M513.625,426.777l-1.022-.59c-3.781-2.183-6.848-8.041-6.848-13.084v-8.583l14.717,8.5V421.6C520.473,426.643,517.407,428.961,513.625,426.777Z" transform="translate(-365.388 -288.472)" fill="#edf4ff"/>
      <path id="Tracé_202" data-name="Tracé 202" d="M588.454,469.917l-1.022-.59c-3.782-2.183-6.848-8.041-6.848-13.084v-8.582l14.716,8.5v8.582C595.3,469.782,592.236,472.1,588.454,469.917Z" transform="translate(-410.813 -314.66)" fill="#edf4ff"/>
      <path id="Tracé_203" data-name="Tracé 203" d="M663.282,512.629l-1.022-.59c-3.782-2.184-6.848-8.041-6.848-13.084v-8.583l14.716,8.5v8.582C670.13,512.495,667.064,514.812,663.282,512.629Z" transform="translate(-456.237 -340.588)" fill="#edf4ff"/>
      <path id="Tracé_204" data-name="Tracé 204" d="M475.895,404.766l-1.022-.59c-3.782-2.184-6.848-8.041-6.848-13.084V382.51l14.717,8.5v8.583C482.742,404.632,479.677,406.949,475.895,404.766Z" transform="translate(-342.484 -275.11)" fill="#daa000"/>
      <path id="Tracé_205" data-name="Tracé 205" d="M551.077,448.347l-1.021-.589c-3.782-2.184-6.848-8.041-6.848-13.084v-8.582l14.717,8.5v8.583C557.925,448.213,554.859,450.53,551.077,448.347Z" transform="translate(-388.123 -301.566)" fill="#daa000"/>
      <path id="Tracé_206" data-name="Tracé 206" d="M626.338,491.608l-1.021-.59c-3.782-2.184-6.848-8.041-6.848-13.084v-8.583l14.717,8.5v8.582C633.186,491.474,630.12,493.791,626.338,491.608Z" transform="translate(-433.81 -327.828)" fill="#daa000"/>
      <path id="Tracé_207" data-name="Tracé 207" d="M750.537,429.348l-16.3-8.854L700.4,456.6l.184.107v8.528c0,5.042,3.066,10.9,6.848,13.084l0,1.359c4.446,1.057,7.865-.9,7.865-5.946v-7.534Z" transform="translate(-483.549 -298.168)" fill="#daa000"/>
      <path id="Tracé_208" data-name="Tracé 208" d="M707.471,462.574l-14.917-8.613,34.861-37.808,16.32,9.251Z" transform="translate(-478.784 -295.533)" fill="#daa000"/>
      <path id="Tracé_209" data-name="Tracé 209" d="M700.892,534.758l-1.021-.59c-3.782-2.184-6.848-8.041-6.848-13.084V512.5L707.74,521v8.582C707.74,534.624,704.674,536.941,700.892,534.758Z" transform="translate(-479.068 -354.022)" fill="#daa000"/>
      <path id="Tracé_210" data-name="Tracé 210" d="M636.054,281.587l-118.559-68.45,3.173-2.151L639.5,279.6Z" transform="translate(-372.514 -170.987)" fill="#daa000"/>
      <path id="Tracé_211" data-name="Tracé 211" d="M822.657,408.157l-3.082-.237-.366-20.344,3.449-1.991Z" transform="translate(-555.668 -276.977)" fill="#daa000"/>
      <path id="Tracé_212" data-name="Tracé 212" d="M987.854,722.747l-72.142-40.511V658.02l72.212,40.848Z" transform="translate(-614.251 -442.358)" fill="#1c46b8"/>
      <path id="Tracé_213" data-name="Tracé 213" d="M640.867,665.327l-59.28-34.6c-3.5-2.042-6.361-7.581-6.361-12.309V553.54c0-4.728,2.863-6.925,6.361-4.884l59.28,34.6c3.5,2.042,6.362,7.581,6.362,12.309v64.881C647.228,665.172,644.366,667.37,640.867,665.327Z" transform="translate(-407.56 -375.506)" fill="#345bc7"/>
      <path id="Tracé_214" data-name="Tracé 214" d="M649.754,660.009l-1.68-.981-5.109-2.981-17.812-10.4a.717.717,0,0,0-1.058.785l6.9,28.887a.711.711,0,0,0,.336.452l10.632,6.205,5.109,2.982,10.632,6.205a.716.716,0,0,0,1.034-.374l1.7-4.682a.716.716,0,1,0-1.346-.489l-1.409,3.875-9.891-5.773-5.109-2.982-10.367-6.051-6.443-26.959,16.365,9.551,5.109,2.982,1.68.981a.716.716,0,1,0,.722-1.237Z" transform="translate(-437.214 -434.789)" fill="#fff"/>
      <path id="Tracé_215" data-name="Tracé 215" d="M654.785,755.155h-1.433A3.246,3.246,0,0,1,652.9,757a1.222,1.222,0,0,1-.414.385,1.023,1.023,0,0,1-.5.122,2.036,2.036,0,0,1-1.007-.32,6.189,6.189,0,0,1-2.166-2.5,8.028,8.028,0,0,1-.931-3.559,3.247,3.247,0,0,1,.454-1.844,1.221,1.221,0,0,1,.414-.385,1.022,1.022,0,0,1,.5-.122,2.034,2.034,0,0,1,1.006.32,6.183,6.183,0,0,1,2.166,2.5,8.027,8.027,0,0,1,.931,3.56h1.433a9.436,9.436,0,0,0-1.091-4.218,7.566,7.566,0,0,0-2.716-3.08,3.446,3.446,0,0,0-1.729-.516,2.462,2.462,0,0,0-1.186.3,2.851,2.851,0,0,0-1.216,1.381,5.177,5.177,0,0,0-.4,2.107,9.44,9.44,0,0,0,1.091,4.217,7.569,7.569,0,0,0,2.716,3.08,3.451,3.451,0,0,0,1.729.516,2.459,2.459,0,0,0,1.185-.3,2.85,2.85,0,0,0,1.217-1.381A5.173,5.173,0,0,0,654.785,755.155Z" transform="translate(-450.795 -496.58)" fill="#fff"/>
      <path id="Tracé_216" data-name="Tracé 216" d="M695.018,778.636h-1.433a3.243,3.243,0,0,1-.453,1.844,1.215,1.215,0,0,1-.414.385,1.021,1.021,0,0,1-.5.122,2.027,2.027,0,0,1-1.006-.32,6.187,6.187,0,0,1-2.166-2.5,8.023,8.023,0,0,1-.931-3.559,3.247,3.247,0,0,1,.453-1.844,1.222,1.222,0,0,1,.414-.385,1.027,1.027,0,0,1,.5-.122,2.036,2.036,0,0,1,1.007.32,6.193,6.193,0,0,1,2.166,2.5,8.023,8.023,0,0,1,.931,3.56h1.433a9.437,9.437,0,0,0-1.091-4.218,7.571,7.571,0,0,0-2.716-3.081,3.451,3.451,0,0,0-1.729-.516,2.46,2.46,0,0,0-1.185.3,2.851,2.851,0,0,0-1.217,1.382,5.176,5.176,0,0,0-.4,2.106,9.433,9.433,0,0,0,1.091,4.217,7.568,7.568,0,0,0,2.716,3.081,3.449,3.449,0,0,0,1.729.515,2.467,2.467,0,0,0,1.186-.3,2.857,2.857,0,0,0,1.217-1.381A5.178,5.178,0,0,0,695.018,778.636Z" transform="translate(-475.218 -510.834)" fill="#fff"/>
      <path id="Tracé_217" data-name="Tracé 217" d="M600.52,583.4l-7.371-4.3a.716.716,0,1,0-.722,1.237l7.371,4.3a.716.716,0,1,0,.722-1.237Z" transform="translate(-417.786 -394.39)" fill="#fff"/>
      <path id="Tracé_218" data-name="Tracé 218" d="M619.065,619.136l-4.158-17.456a.716.716,0,1,0-1.393.332l4.158,17.456a.716.716,0,1,0,1.393-.332Z" transform="translate(-430.79 -407.823)" fill="#fff"/>
      <path id="Tracé_219" data-name="Tracé 219" d="M712.126,691.256c0,6.682-4.009,9.76-8.954,6.874s-8.954-10.643-8.954-17.325,4.009-9.76,8.954-6.874S712.126,684.573,712.126,691.256Z" transform="translate(-479.794 -451.358)" fill="#ffc248"/>
      <path id="Tracé_220" data-name="Tracé 220" d="M705.064,696.616l3.616,8.713a.8.8,0,0,0,1.446.054l4.224-8.357a.8.8,0,0,0-1.422-.718l-3.442,6.809-2.951-7.112a.8.8,0,0,0-1.471.611Z" transform="translate(-486.341 -465.118)" fill="#fff"/>
      <path id="Tracé_221" data-name="Tracé 221" d="M632.485,671.964l18.456,10.772a.716.716,0,0,0,.722-1.237l-18.456-10.772a.716.716,0,1,0-.722,1.237Z" transform="translate(-442.103 -450.012)" fill="#fff"/>
      <path id="Tracé_222" data-name="Tracé 222" d="M645.306,668.68l4.459,19.7a.716.716,0,1,0,1.4-.316l-4.459-19.7a.716.716,0,0,0-1.4.316Z" transform="translate(-450.091 -448.298)" fill="#fff"/>
      <path id="Tracé_223" data-name="Tracé 223" d="M664.613,679.948l4.459,19.7a.716.716,0,0,0,1.4-.316l-4.459-19.7a.716.716,0,1,0-1.4.316Z" transform="translate(-461.811 -455.138)" fill="#fff"/>
      <path id="Tracé_224" data-name="Tracé 224" d="M636.056,693.344l18.456,10.772a.716.716,0,1,0,.722-1.237l-18.456-10.772a.716.716,0,1,0-.722,1.237Z" transform="translate(-444.271 -462.991)" fill="#fff"/>
      <path id="Tracé_225" data-name="Tracé 225" d="M952.324,837.423v66.954l24.436,14.107v-.055l5.824,3.364V854.839Z" transform="translate(-636.476 -551.264)" fill="#1c46b8"/>
      <path id="Tracé_226" data-name="Tracé 226" d="M973.377,916.414l16.077,9.282v-.055L995.278,929V862.05l-21.9-12.605Z" transform="translate(-649.256 -558.562)" fill="#fff"/>
      <path id="Tracé_227" data-name="Tracé 227" d="M997.3,884.461l-14.48-8.36V860.063l14.48,8.36Z" transform="translate(-654.989 -565.007)" fill="#1c46b8"/>
      <path id="Tracé_228" data-name="Tracé 228" d="M997.3,918.237l-14.48-8.36V893.839l14.48,8.36Z" transform="translate(-654.989 -585.511)" fill="#1c46b8"/>
      <path id="Tracé_229" data-name="Tracé 229" d="M977.982,957.522a2.107,2.107,0,0,1-1.045-1.622v-4.608c0-.575.47-.785,1.045-.468a2.108,2.108,0,0,1,1.045,1.622v4.607C979.027,957.628,978.557,957.839,977.982,957.522Z" transform="translate(-651.417 -620.014)" fill="#1c46b8"/>
      <path id="Tracé_230" data-name="Tracé 230" d="M1149.152,740.946l-3.12,1.717-15.5-13.176-3.12-75.746,3.12-1.716,18.622,11.459Z" transform="translate(-742.761 -438.719)" fill="#de9d1b"/>
      <path id="Tracé_231" data-name="Tracé 231" d="M1282.622,686.39l-96.615,55.8L1185.57,628.8l96.615-55.8Z" transform="translate(-778.067 -390.745)" fill="#183da1"/>
      <path id="Tracé_232" data-name="Tracé 232" d="M1185.57,723.568l82.63-46.429V581.076L1282.186,573l.436,113.392-96.615,55.8Z" transform="translate(-778.067 -390.745)" fill="#1c46b8"/>
      <path id="Tracé_233" data-name="Tracé 233" d="M1246.538,745.17l-9.918,7.25,27.77-85.78,9.918-7.249Z" transform="translate(-809.057 -443.19)" fill="#3258c4"/>
      <path id="Tracé_234" data-name="Tracé 234" d="M1298.678,716.645l-9.918,7.25,27.77-85.78,9.918-7.25Z" transform="translate(-840.708 -425.873)" fill="#3258c4"/>
      <path id="Tracé_235" data-name="Tracé 235" d="M520.949,790.6s-11.154,6.441-6.135,14.224S527.544,793.153,527.364,793,520.949,790.6,520.949,790.6Z" transform="translate(-370.099 -522.838)" fill="#875963"/>
      <path id="Tracé_236" data-name="Tracé 236" d="M540.851,789.525c4.653,4.86,4.116,11.087,5.62,15.2,3.852,10.538,7.658,10.507,8.092,17.6s-8.005,5.534-12.014.908-8.36-9.232-10.791-16.066C529.521,800.875,538.009,796.182,540.851,789.525Z" transform="translate(-380.947 -522.188)" fill="#875963"/>
      <path id="Tracé_237" data-name="Tracé 237" d="M531.253,815s7.319,4.775,5.194,11.4-20.319,9.38-15.178-.114S531.253,815,531.253,815Z" transform="translate(-374.253 -537.653)" fill="#6e424c"/>
      <path id="Tracé_238" data-name="Tracé 238" d="M486.318,854.444c.5-1.135,2.045-1.343,4.924-6.707,1.791-3.337,1.955-8.732,2.389-13.291,1.032-10.81,7.23-11.645,9.376-10.112s-4,11-4,11,1.939,5.788-3.214,15.587c-1.188,2.26-3.751,4.686-6.845,6.656C487.927,858.231,486.318,854.444,486.318,854.444Z" transform="translate(-353.589 -542.96)" fill="#daa000"/>
      <path id="Tracé_239" data-name="Tracé 239" d="M476.824,904.366l.287.552a2.085,2.085,0,0,0,2.8.886l2.081-1.081a2.084,2.084,0,0,0,.887-2.8l-.287-.552a2.084,2.084,0,0,0-2.8-.886l-2.081,1.081A2.084,2.084,0,0,0,476.824,904.366Z" transform="translate(-347.684 -589.403)" fill="#ffa3b4"/>
      <path id="Tracé_240" data-name="Tracé 240" d="M470.138,915.5a23.415,23.415,0,0,0,1.954-6.5c.185-2.283-2.487-1.987-4.035-1.639a8.026,8.026,0,0,0-4.534,3.281c-1.27,1.686-2.737,3.713-2.933,5.869-.041.459.677.459.718,0,.161-1.781,1.379-3.42,2.368-4.856a8.781,8.781,0,0,1,3.513-3.265,7.165,7.165,0,0,1,2.765-.53,1.146,1.146,0,0,1,1.114.393c.338.366.342.335.307.744a9.594,9.594,0,0,1-.219,1.292,35.029,35.029,0,0,1-1.709,5.014C469.277,915.741,469.97,915.929,470.138,915.5Z" transform="translate(-337.97 -593.579)" fill="#0f1a5c"/>
      <path id="Tracé_241" data-name="Tracé 241" d="M467.619,946.062,447.63,951.4l3.526-21.206,19.237-4.579Z" transform="translate(-330.103 -604.804)" fill="#f5b433"/>
      <path id="Tracé_242" data-name="Tracé 242" d="M441.836,955.006l-3.744-7.48,5.71-16,1.56,2.272Z" transform="translate(-324.313 -608.391)" fill="#ffc248"/>
      <path id="Tracé_243" data-name="Tracé 243" d="M498.06,923.009,493.98,921.3l-.767,2.867Z" transform="translate(-357.774 -602.179)" fill="#d48f05"/>
      <path id="Tracé_244" data-name="Tracé 244" d="M449.981,923.806l17.755-2.51-.6,2.828-14.553,3.464Z" transform="translate(-331.53 -602.179)" fill="#de9d1b"/>
      <path id="Tracé_245" data-name="Tracé 245" d="M430.489,944.663l-4.921-1.239,7.384-16.612,3.247,1.853Z" transform="translate(-316.711 -605.528)" fill="#f5b433"/>
      <path id="Tracé_246" data-name="Tracé 246" d="M444.383,919.192l19.65-4.948.3,2.771-14.313,5.391Z" transform="translate(-328.132 -597.897)" fill="#de9d1b"/>
      <path id="Tracé_247" data-name="Tracé 247" d="M434.233,977.805l-8.665-8.719,4.921,1.239Z" transform="translate(-316.711 -631.19)" fill="#f5b433"/>
      <path id="Tracé_248" data-name="Tracé 248" d="M489.569,936.56c-.1.357.116.568.472.472a1.279,1.279,0,0,0,.817-.819c.1-.356-.116-.567-.472-.472A1.278,1.278,0,0,0,489.569,936.56Z" transform="translate(-355.548 -610.934)" fill="#0f1a5c"/>
      <path id="Tracé_249" data-name="Tracé 249" d="M469.064,940.913c-.1.356.116.567.472.472a1.279,1.279,0,0,0,.817-.818c.1-.356-.116-.567-.472-.472A1.279,1.279,0,0,0,469.064,940.913Z" transform="translate(-343.101 -613.576)" fill="#0f1a5c"/>
      <path id="Tracé_250" data-name="Tracé 250" d="M469.34,921.3l4.081,1.713-19.237,4.58-1.56-2.272.336-.079,1.445,1.9,18.345-4.185-3.569-1.488Z" transform="translate(-333.134 -602.179)" fill="#fff"/>
      <path id="Tracé_251" data-name="Tracé 251" d="M464.338,917.015l-.3-2.771-19.65,4.948,3.238,1.844.336-.079-2.944-1.69,18.826-4.717.339,2.639Z" transform="translate(-328.132 -597.897)" fill="#fff"/>
      <path id="Tracé_252" data-name="Tracé 252" d="M478.059,919.786a45.741,45.741,0,0,0,.233-8.136c-.084-.883-.176-1.964-1.037-2.447a3.939,3.939,0,0,0-3.135.244c-2.087.879-3.015,3.144-3.625,5.171-.717,2.383-1.439,4.969-1.1,7.471.062.456.755.27.694-.183a16.446,16.446,0,0,1,.9-6.4c.5-1.83,1.165-4.076,2.887-5.13.876-.537,3.032-1.258,3.5.109a9.925,9.925,0,0,1,.29,2.94c.036,2.126-.151,4.248-.328,6.365C477.3,920.245,478.021,920.245,478.059,919.786Z" transform="translate(-343.263 -594.69)" fill="#0f1a5c"/>
      <path id="Tracé_253" data-name="Tracé 253" d="M499.1,1058.774l6.983-6.413a8.4,8.4,0,0,1,4.334-.393,1.326,1.326,0,0,1,1.088,1.269l.048,1.348c.137,1.945-.048,2.216-1.265,2.861l-7.232,3.815a4.5,4.5,0,0,1-4.049.016l-.286-.181C497.712,1060.459,497.883,1059.414,499.1,1058.774Z" transform="translate(-360.718 -681.435)" fill="#0f1a5c"/>
      <path id="Tracé_254" data-name="Tracé 254" d="M522.209,955.05c-.25,1.953-3.691,1.98-4.683.369-2.889-19.318-2.027-37.1-1.1-56.829l12.532-8.259C525.46,913.869,521.029,936.742,522.209,955.05Z" transform="translate(-371.33 -583.382)" fill="#ffa3b4"/>
      <path id="Tracé_255" data-name="Tracé 255" d="M572.407,1037.343l1.255-8.841a6.341,6.341,0,0,1,2.824-2.5,1.264,1.264,0,0,1,1.488.511l.8,1.1c1.2,1.552,1.232,1.87.742,3.018l-2.909,6.806a3.411,3.411,0,0,1-2.841,2.047l-.3-.008C572.395,1039.445,571.918,1038.491,572.407,1037.343Z" transform="translate(-405.732 -665.686)" fill="#0f1a5c"/>
      <path id="Tracé_256" data-name="Tracé 256" d="M559.47,982.777c.553,1.261-1.024,4.216-2.807,2.888-5.856-3.081-10.849-9.344-13.649-19.123-2.526-8.823,8-18.3,8.415-7.931C551.819,968.405,554.028,976.792,559.47,982.777Z" transform="translate(-387.768 -622.079)" fill="#ffa3b4"/>
      <path id="Tracé_257" data-name="Tracé 257" d="M532.589,904.112c3.029,4.195.2,16.88,3.026,30.88,0,0-9.976,8.574-24.723-4.467l1.334-29.431Z" transform="translate(-368.506 -589.915)" fill="#0f1a5c"/>
      <path id="Tracé_258" data-name="Tracé 258" d="M566.152,933.243l.589-.2a2.086,2.086,0,0,0,1.3-2.636l-.752-2.221a2.081,2.081,0,0,0-2.634-1.3l-.589.2a2.086,2.086,0,0,0-1.3,2.635l.751,2.221A2.082,2.082,0,0,0,566.152,933.243Z" transform="translate(-399.93 -605.506)" fill="#ffa3b4"/>
      <path id="Tracé_259" data-name="Tracé 259" d="M509.381,853.913a48.541,48.541,0,0,0-2.285-10.837c-2.183-5.782-.083-8.477,3.348-13.618,1.759-2.637,2.907-5.887,5.236-6.086l2.076.574a14.263,14.263,0,0,1,2.859,1.135c9.7,5.124,11.7,6.226,11.21,12.044-.017,3-1.708-.195-2.163,1.771-.874,3.772-1.346,7.211.219,13.987.316,1.367-1.334,1.572-2.46,2.41C522.54,858.923,511.257,858.016,509.381,853.913Z" transform="translate(-365.661 -542.734)" fill="#daa000"/>
      <path id="Tracé_260" data-name="Tracé 260" d="M554.064,863.709l5.814,13.039-6.578,7.475Z" transform="translate(-394.25 -567.221)" fill="#daa000"/>
      <path id="Tracé_261" data-name="Tracé 261" d="M536.53,820.991l-.345.02a2.129,2.129,0,0,1-2.241-2l-.38-6.571a2.129,2.129,0,0,1,2-2.241l.345-.02a2.129,2.129,0,0,1,2.241,2l1.293,6.26C539.507,819.6,537.695,820.924,536.53,820.991Z" transform="translate(-382.267 -534.726)" fill="#ffa3b4"/>
      <path id="Tracé_262" data-name="Tracé 262" d="M534.089,822.171a5.812,5.812,0,0,0,4.631-2.563s-1.8,4.058-4.342,4.381Z" transform="translate(-382.588 -540.449)" fill="#f08b9e"/>
      <path id="Tracé_263" data-name="Tracé 263" d="M532.166,789.525c-1.037-1.854-2.632-2.3-4.118-1.418-1.449-.745-3.207.011-4.512,2.2-1.816,3.052-2.268,7.311-.755,10.014a5.332,5.332,0,0,0,4.323,2.494c2.838.22,4.329-.6,5.668-2.853C534.589,796.913,533.68,792.227,532.166,789.525Z" transform="translate(-375.17 -521.061)" fill="#ffa3b4"/>
      <path id="Tracé_264" data-name="Tracé 264" d="M538.217,790.369s-1.8,6.336,3.074,8.629c0,0,6.322-2.379,3.112-9.3-2.829-6.1-9.5-2.918-9.5-2.918Z" transform="translate(-383.08 -520.021)" fill="#875963"/>
      <path id="Tracé_265" data-name="Tracé 265" d="M531.041,793.136c-3.58-1.641-2.072-5.179-10.135-1.716-1.887-.194-1.309-1.816.039-3.458,1.681-2.046,3.375-3.916,5.983-4.369l.633-.04a7.882,7.882,0,0,1,8.219,5.987,6.811,6.811,0,0,1,.15.909l-2.094-.19C534.037,792.451,533.235,792.935,531.041,793.136Z" transform="translate(-373.854 -518.552)" fill="#875963"/>
      <path id="Tracé_266" data-name="Tracé 266" d="M547.844,815.334a1.564,1.564,0,1,1-1-1.972A1.563,1.563,0,0,1,547.844,815.334Z" transform="translate(-389.086 -536.61)" fill="#ffa3b4"/>
      <path id="Tracé_267" data-name="Tracé 267" d="M556.637,849.726c1.611,5.138,2.923,11.615,1.839,16.739l7.079,2.571s1.122-2,.554-8.522a31.188,31.188,0,0,0-4.367-13.611Z" transform="translate(-396.276 -557.019)" fill="#daa000"/>
      <path id="Tracé_268" data-name="Tracé 268" d="M567.417,861.629c-3.51,3.38-5.227,9.858-5.169,16.8-.328.763.4,8.714.4,8.714l-3.782-.038a98.074,98.074,0,0,1-2.493-12.467,7.978,7.978,0,0,1,.444-3.448l5.072-13.73Z" transform="translate(-396.097 -563.43)" fill="#ffa3b4"/>
      <path id="Tracé_269" data-name="Tracé 269" d="M573.067,839.891c-2.621,2.151-5.29,4.793-8.283,10.728-.324,4.295,2.012,6.119,4.373,8.085l8.876-8.614-3.186-6.75Z" transform="translate(-401.203 -552.762)" fill="#3e69de"/>
      <path id="Tracé_270" data-name="Tracé 270" d="M564.221,1086.968l7.685-4.543a7.921,7.921,0,0,1,4.073.483,1.247,1.247,0,0,1,.756,1.379l-.218,1.25c-.252,1.816-.475,2.032-1.723,2.389l-7.409,2.106a4.269,4.269,0,0,1-3.735-.774l-.228-.224C562.613,1088.253,562.974,1087.326,564.221,1086.968Z" transform="translate(-400.132 -699.927)" fill="#0f1a5c"/>
      <path id="Tracé_271" data-name="Tracé 271" d="M632.383,1054.417c.832,1.705-3.217,3.949-4.049,2.248l-2.7-5.537,4.049-2.248Z" transform="translate(-438.158 -679.628)" fill="#86abd9"/>
      <path id="Tracé_272" data-name="Tracé 272" d="M590.076,1074.58c-.439,1.847-4.994,1.01-4.554-.837l1.429-5.993,4.554.837Z" transform="translate(-413.792 -691.083)" fill="#86abd9"/>
      <path id="Tracé_273" data-name="Tracé 273" d="M601.483,970.8c-1.337,1.9-4.192,3.183-5.588,2.334-8.741-14.417-17.686-28.97-20.466-47.422l11.586-8.972C591.43,937.6,594.584,956.407,601.483,970.8Z" transform="translate(-407.683 -599.411)" fill="#f5f9ff"/>
      <path id="Tracé_274" data-name="Tracé 274" d="M591.816,984.669c-1.887,1.588-5.135.861-5.767-.743l3.965-59.251,16.372,3.733Z" transform="translate(-414.13 -604.23)" fill="#f5f9ff"/>
      <path id="Tracé_275" data-name="Tracé 275" d="M597.477,952.456,593.882,965.1l1.086-14.668a19.1,19.1,0,0,0,2.223.6Z" transform="translate(-418.885 -619.868)" fill="#cddffa"/>
      <path id="Tracé_276" data-name="Tracé 276" d="M574.075,872.074a174.963,174.963,0,0,0,.525-22.761c.857-12.332,5.833-16.572,13.405-13.2l3.151,1.075c9.026,5.7,13.806,5.78,11.44,15.587l-3.152,21.639C598.667,885.615,572.564,885.2,574.075,872.074Z" transform="translate(-406.823 -549.792)" fill="#3e69de"/>
      <path id="Tracé_277" data-name="Tracé 277" d="M631.492,877.756l2.877,17.068.371,1.668,1.156-8.05Z" transform="translate(-441.716 -575.748)" fill="#2139c4"/>
      <path id="Tracé_278" data-name="Tracé 278" d="M603.085,819.131a6.669,6.669,0,0,0,1.379,1.768c.552.312,8.559-2.8,8.094-9.306-.295-4.118-8.11-3.458-8.11-3.458Z" transform="translate(-424.472 -533.462)" fill="#0f1a5c"/>
      <path id="Tracé_279" data-name="Tracé 279" d="M605.549,833.4l-.377.037a2.335,2.335,0,0,1-2.546-2.087l-.713-7.184A2.335,2.335,0,0,1,604,821.619l.377-.037a2.334,2.334,0,0,1,2.546,2.087l1.7,6.8C608.749,831.745,606.823,833.272,605.549,833.4Z" transform="translate(-423.753 -541.64)" fill="#ffa3b4"/>
      <path id="Tracé_280" data-name="Tracé 280" d="M602.91,834.173a6.373,6.373,0,0,0,5.237-2.506s-2.229,4.327-5.038,4.515Z" transform="translate(-424.365 -547.77)" fill="#f08b9e"/>
      <path id="Tracé_281" data-name="Tracé 281" d="M596.748,812.657c-1.708,3.024-4.341,3.36-5.879.751s-1.4-7.175.306-10.2,4.341-3.36,5.879-.751S598.456,809.634,596.748,812.657Z" transform="translate(-416.406 -528.973)" fill="#ffa3b4"/>
      <path id="Tracé_282" data-name="Tracé 282" d="M601.957,812.126c-1.708,3.023-7.565,4.208-9.1,1.6s.694-8.017,2.4-11.04,4.341-3.36,5.879-.751S603.665,809.1,601.957,812.126Z" transform="translate(-417.947 -528.654)" fill="#ffa3b4"/>
      <path id="Tracé_283" data-name="Tracé 283" d="M605.075,802.754s-1.623,6.234,3.2,8.368c0,0,6.127-2.465,2.838-9.155-2.9-5.9-9.355-2.643-9.355-2.643Z" transform="translate(-423.662 -527.592)" fill="#0f1a5c"/>
      <path id="Tracé_284" data-name="Tracé 284" d="M589.9,809.587a6.107,6.107,0,0,1,4.524-3.3l-2.384-1.925S589.294,804.593,589.9,809.587Z" transform="translate(-416.416 -531.195)" fill="#0f1a5c"/>
      <path id="Tracé_285" data-name="Tracé 285" d="M598.93,805.82c-.891-1.639-3.246-1.957-6.765-1.227a2.981,2.981,0,0,1-1.612-.066c-2.415-.866-2.352-4.006-2.352-4.006-.244-2.139,1.254-2.878,3.394-3.121l5.572-.635c3.155-.377,5.746,2.541,5.989,4.68l.093.36C603.493,803.945,601.069,805.576,598.93,805.82Z" transform="translate(-415.42 -526.562)" fill="#0f1a5c"/>
      <path id="Tracé_286" data-name="Tracé 286" d="M615.424,826.914a1.529,1.529,0,1,1-.579-2.083A1.529,1.529,0,0,1,615.424,826.914Z" transform="translate(-430.226 -543.5)" fill="#ffa3b4"/>
      <path id="Tracé_287" data-name="Tracé 287" d="M662.381,956.036a25.77,25.77,0,0,0,.315-7.453c-.425-2.483-3.19-1.441-4.745-.648a8.819,8.819,0,0,0-3.938,4.729c-.9,2.142-1.907,4.7-1.529,7.051.081.5.846.305.766-.194-.313-1.941.539-4.019,1.2-5.817a9.656,9.656,0,0,1,2.854-4.434,7.879,7.879,0,0,1,2.8-1.317,1.26,1.26,0,0,1,1.294.116c.46.3.456.264.529.709a10.642,10.642,0,0,1,.117,1.437,38.55,38.55,0,0,1-.456,5.806C661.529,956.523,662.318,956.536,662.381,956.036Z" transform="translate(-454.41 -617.798)" fill="#0f1a5c"/>
      <path id="Tracé_288" data-name="Tracé 288" d="M672.838,991.846l-19.889,13.408L650.06,971.44l19.25-10.112Z" transform="translate(-452.988 -626.481)" fill="#f5b433"/>
      <path id="Tracé_289" data-name="Tracé 289" d="M648.082,1017.817l-6.039-6.955.87-28.837,2.28,1.995Z" transform="translate(-448.121 -639.044)" fill="#ffc248"/>
      <path id="Tracé_290" data-name="Tracé 290" d="M691.556,960.265l-4.814-.715-.036,3.263Z" transform="translate(-475.233 -625.401)" fill="#83a1ed"/>
      <path id="Tracé_291" data-name="Tracé 291" d="M640.4,967.054l18.233-7.5.127,3.177-14.563,7.649Z" transform="translate(-447.122 -625.401)" fill="#de9d1b"/>
      <path id="Tracé_292" data-name="Tracé 292" d="M633.422,1009.176l-5.58.016,2.487-29.944,3.963,1.091Z" transform="translate(-439.5 -637.358)" fill="#f5b433"/>
      <path id="Tracé_293" data-name="Tracé 293" d="M634.2,962.863l19.59-10.618,1.078,2.871-13.783,9.637Z" transform="translate(-443.361 -620.966)" fill="#de9d1b"/>
      <path id="Tracé_294" data-name="Tracé 294" d="M639.446,1062.358l-11.6-6.932,5.58-.016Z" transform="translate(-439.5 -683.592)" fill="#f5b433"/>
      <path id="Tracé_295" data-name="Tracé 295" d="M685.38,976.89c0,.405.278.573.631.374a1.4,1.4,0,0,0,.648-1.094c0-.405-.278-.573-.631-.374A1.406,1.406,0,0,0,685.38,976.89Z" transform="translate(-474.428 -635.212)" fill="#83a1ed"/>
      <path id="Tracé_296" data-name="Tracé 296" d="M664.717,987.106c0,.406.278.573.632.374a1.4,1.4,0,0,0,.648-1.094c0-.406-.278-.573-.631-.374A1.4,1.4,0,0,0,664.717,987.106Z" transform="translate(-461.885 -641.414)" fill="#83a1ed"/>
      <path id="Tracé_297" data-name="Tracé 297" d="M660.974,959.55l4.814.715-19.25,10.112-2.28-2,.337-.176,2.058,1.636,18.407-9.449-4.207-.614Z" transform="translate(-449.465 -625.401)" fill="#fff"/>
      <path id="Tracé_298" data-name="Tracé 298" d="M654.87,955.116l-1.078-2.871L634.2,962.863l3.951,1.084.337-.176-3.6-1,18.775-10.146,1.079,2.72Z" transform="translate(-443.361 -620.966)" fill="#fff"/>
      <path id="Tracé_299" data-name="Tracé 299" d="M672.4,959.555a50.281,50.281,0,0,0-1.965-8.732c-.33-.918-.722-2.044-1.77-2.324-1.091-.292-2.437.477-3.273,1.112-1.984,1.505-2.357,4.17-2.455,6.5-.116,2.733-.182,5.685.857,8.259.189.47.878.082.69-.384-.894-2.215-.819-4.72-.78-7.069.035-2.086.132-4.66,1.68-6.251.788-.81,2.889-2.165,3.759-.836a10.913,10.913,0,0,1,1.109,3.053,70.011,70.011,0,0,1,1.382,6.87C671.719,960.25,672.484,960.055,672.4,959.555Z" transform="translate(-460.767 -618.654)" fill="#0f1a5c"/>
      <path id="Tracé_300" data-name="Tracé 300" d="M671.665,955.5a25.753,25.753,0,0,0-3.982-6.308c-1.762-1.8-3.443.631-4.271,2.167a8.824,8.824,0,0,0-.547,6.13c.483,2.27,1.107,4.95,2.757,6.668.351.365.869-.231.519-.6-1.362-1.418-1.844-3.611-2.322-5.467a9.65,9.65,0,0,1-.176-5.27,7.872,7.872,0,0,1,1.554-2.677c.369-.435.52-.623,1.13-.641.548-.017.525-.042.838.282a10.617,10.617,0,0,1,.914,1.114,38.6,38.6,0,0,1,2.929,5.034C671.241,956.388,671.9,955.949,671.665,955.5Z" transform="translate(-460.582 -618.728)" fill="#0f1a5c"/>
      <path id="Tracé_301" data-name="Tracé 301" d="M697.686,964.088,687.7,984.532l-15.058-18.221,10.074-19.271Z" transform="translate(-466.698 -617.807)" fill="#daa000"/>
      <path id="Tracé_302" data-name="Tracé 302" d="M683.076,1013.8l-8.909-2.287-9.16-16.275,3.01.343Z" transform="translate(-462.061 -647.067)" fill="#daa000"/>
      <path id="Tracé_303" data-name="Tracé 303" d="M691.561,947.075l-4.366,2.152,1.827,2.7Z" transform="translate(-475.53 -617.828)" fill="#daa000"/>
      <path id="Tracé_304" data-name="Tracé 304" d="M659.909,969.1l10.722-16.547,1.913,2.54-7.621,14.578Z" transform="translate(-458.966 -621.152)" fill="#daa000"/>
      <path id="Tracé_305" data-name="Tracé 305" d="M668.173,1011.517l-4.578,3.195L655.133,996.6l3.88-1.358Z" transform="translate(-456.067 -647.067)" fill="#daa000"/>
      <path id="Tracé_306" data-name="Tracé 306" d="M655.169,967.985l10.065-19.88,2.52,1.747-5.848,15.768Z" transform="translate(-456.089 -618.453)" fill="#daa000"/>
      <path id="Tracé_307" data-name="Tracé 307" d="M690.155,1038.947l-13.487.908,4.578-3.195Z" transform="translate(-469.14 -672.21)" fill="#daa000"/>
      <path id="Tracé_308" data-name="Tracé 308" d="M696.624,966.705a.387.387,0,0,0,.732-.052,1.4,1.4,0,0,0-.09-1.268.387.387,0,0,0-.732.052A1.406,1.406,0,0,0,696.624,966.705Z" transform="translate(-481.133 -628.799)" fill="#0f1a5c"/>
      <path id="Tracé_309" data-name="Tracé 309" d="M685.447,986.865a.387.387,0,0,0,.732-.052,1.405,1.405,0,0,0-.09-1.268.387.387,0,0,0-.732.052A1.4,1.4,0,0,0,685.447,986.865Z" transform="translate(-474.348 -641.037)" fill="#0f1a5c"/>
      <path id="Tracé_310" data-name="Tracé 310" d="M673.726,949.227l4.366-2.152-10.074,19.27-3.01-.343.177-.336,2.623.174,9.757-18.245-3.809,1.889Z" transform="translate(-462.061 -617.828)" fill="#fff"/>
      <path id="Tracé_311" data-name="Tracé 311" d="M667.754,949.852l-2.52-1.747-10.065,19.88,3.866-1.357.177-.336-3.526,1.224,9.663-19.028,2.435,1.622Z" transform="translate(-456.089 -618.453)" fill="#fff"/>
      <path id="Tracé_312" data-name="Tracé 312" d="M679.214,955.583a50.308,50.308,0,0,0-6.585-6.062c-.794-.567-1.758-1.27-2.779-.9-1.064.381-1.732,1.78-2.058,2.778-.775,2.367.435,4.771,1.678,6.739,1.46,2.313,3.086,4.777,5.406,6.3.423.278.769-.432.349-.708-2-1.312-3.359-3.415-4.664-5.369-1.158-1.735-2.543-3.907-2.177-6.1.187-1.115,1.143-3.424,2.615-2.827a10.912,10.912,0,0,1,2.65,1.88,69.984,69.984,0,0,1,5.046,4.862C679.05,956.542,679.567,955.946,679.214,955.583Z" transform="translate(-463.604 -618.703)" fill="#0f1a5c"/>
      <path id="Tracé_313" data-name="Tracé 313" d="M665.555,944.442l-.573.123a1.962,1.962,0,0,0-1.5,2.323l.463,2.159a1.963,1.963,0,0,0,2.324,1.5l.573-.123a1.963,1.963,0,0,0,1.5-2.323l-.463-2.158A1.962,1.962,0,0,0,665.555,944.442Z" transform="translate(-461.108 -616.203)" fill="#ffa3b4"/>
      <path id="Tracé_314" data-name="Tracé 314" d="M635.28,873.074c4.374,3,7.608,9.271,9.124,16.2.51.726,2.268,12.649,2.268,12.649l4.276-1.4s-.736-11.073-1.368-15.649a8.508,8.508,0,0,0-1.238-3.389l-8.326-13.147Z" transform="translate(-444.016 -570.03)" fill="#ffa3b4"/>
      <path id="Tracé_315" data-name="Tracé 315" d="M629.016,862.458l5.831,11.8c.754.9,9.937-3.917,8.981-5.312-.169-.246-6.654-14.526-12.37-16.62C626.816,850.625,626.032,857.1,629.016,862.458Z" transform="translate(-439.14 -560.143)" fill="#3e69de"/>
      <path id="Tracé_316" data-name="Tracé 316" d="M551.526,893.778s5.695-.341,7.948-4.517l.838,4.985s-.3,5.575-10.034,2.773Z" transform="translate(-392.415 -582.732)" fill="#daa000"/>
      <path id="Tracé_317" data-name="Tracé 317" d="M543.239,905.722l.287.552a2.085,2.085,0,0,0,2.8.886l2.081-1.08a2.084,2.084,0,0,0,.887-2.8l-.287-.552a2.084,2.084,0,0,0-2.8-.886l-2.081,1.08A2.085,2.085,0,0,0,543.239,905.722Z" transform="translate(-388.001 -590.226)" fill="#ffa3b4"/>
      <path id="Tracé_318" data-name="Tracé 318" d="M484.793,907.871a.987.987,0,0,1-.466-1.311l.508-1.07a.984.984,0,1,1,1.777.845L486.1,907.4A.987.987,0,0,1,484.793,907.871Z" transform="translate(-352.322 -592.243)" fill="#ffa3b4"/>
      <path id="Tracé_319" data-name="Tracé 319" d="M524.926,814.764l3.69.67s-1.379,1.934-2.393,1.563S524.926,814.764,524.926,814.764Z" transform="translate(-377.025 -537.509)" fill="#fff"/>
      <path id="Tracé_320" data-name="Tracé 320" d="M593.927,828.1l3.74.275s-1.167,2.068-2.214,1.807S593.927,828.1,593.927,828.1Z" transform="translate(-418.912 -545.603)" fill="#fff"/>
      <path id="Tracé_321" data-name="Tracé 321" d="M1360.727,1105.37a38.966,38.966,0,0,1-7.757-.755l23.495-2.7C1372.237,1104.2,1366.464,1105.37,1360.727,1105.37Z" transform="translate(-879.687 -711.826)" fill="#c1ceee"/>
      <path id="Tracé_322" data-name="Tracé 322" d="M1333.89,1078a28.1,28.1,0,0,1-5.25-1.588c-8.645-3.619-9.517-10.134-1.953-14.551,4.271-2.5,10.327-3.788,16.343-3.788a34.421,34.421,0,0,1,13.007,2.342c8.641,3.619,9.517,10.134,1.953,14.551-.2.118-.4.228-.605.338Z" transform="translate(-860.607 -685.207)" fill="#a7bbe4"/>
      <path id="Tracé_323" data-name="Tracé 323" d="M1427.386,894.678s-14.26-2.551-15.046-12.229l4.385-2.9s-1.277,6.041,12.61,12.27Z" transform="translate(-915.727 -576.834)" fill="#ffa3b4"/>
      <path id="Tracé_324" data-name="Tracé 324" d="M1410.483,865.318c-1.144-2.137-.613,1.094-4.385-10.461-3.36-10.289-8.24-11.5-10.186-10.016s5.022,10.838,5.022,10.838-1.155,10.051,5.706,13.294C1407.768,869.5,1410.483,865.318,1410.483,865.318Z" transform="translate(-905.547 -555.451)" fill="#de9d1b"/>
      <path id="Tracé_325" data-name="Tracé 325" d="M1395.99,1074.322l-6.405-6.68a8.207,8.207,0,0,0-4.2-.652,1.289,1.289,0,0,0-1.14,1.167l-.13,1.313c-.255,1.882-.09,2.161,1.053,2.865l6.81,4.169a4.41,4.41,0,0,0,3.945.263l.291-.157C1397.24,1076.051,1397.138,1075.021,1395.99,1074.322Z" transform="translate(-898.533 -690.598)" fill="#0f1a5c"/>
      <path id="Tracé_326" data-name="Tracé 326" d="M1380.454,971.62c.122,1.922,3.474,2.161,4.542.652,4.012-18.642,4.275-36.016,4.6-55.3l-11.694-8.824C1379.841,931.3,1382.741,953.859,1380.454,971.62Z" transform="translate(-894.821 -594.199)" fill="#ffa3b4"/>
      <path id="Tracé_327" data-name="Tracé 327" d="M1376.012,873.669a47.343,47.343,0,0,1,2.338-10.556c2.189-5.623.165-8.274-3.132-13.327-1.689-2.592-2.778-5.776-5.049-5.994l-2.032.539a13.894,13.894,0,0,0-2.8,1.079c-9.521,4.9-11.482,5.961-11.065,11.645-.012,2.933,1.67-.173,2.094,1.751.817,3.691,1.241,7.052-.354,13.651-.322,1.332,1.289,1.548,2.377,2.378C1363.116,878.429,1374.142,877.656,1376.012,873.669Z" transform="translate(-880.445 -555.13)" fill="#f5b433"/>
      <path id="Tracé_328" data-name="Tracé 328" d="M1361.1,882.921l-5.8,12.67,6.346,7.363Z" transform="translate(-881.101 -578.883)" fill="#de9d1b"/>
      <path id="Tracé_329" data-name="Tracé 329" d="M1329.117,1050.55l-.047-8.468a5.1,5.1,0,0,0-2.421-2.425,1.372,1.372,0,0,0-1.521.472l-.927,1.045c-1.383,1.469-1.45,1.776-1.128,2.876l1.929,6.543a2.812,2.812,0,0,0,2.5,1.981l.3,0A1.437,1.437,0,0,0,1329.117,1050.55Z" transform="translate(-861.441 -673.977)" fill="#0f1a5c"/>
      <path id="Tracé_330" data-name="Tracé 330" d="M1329.614,998.454c-.707,1.2.436,4.044,2.354,2.79,6.118-2.888,11.82-8.83,15.852-18.158,3.639-8.416-5.364-17.581-7.144-7.669C1338.99,984.783,1335.717,992.784,1329.614,998.454Z" transform="translate(-865.381 -632.417)" fill="#ffa3b4"/>
      <path id="Tracé_331" data-name="Tracé 331" d="M1353.982,924.417c-3,4.065-.365,16.477-3.262,30.114,0,0,7.851,9.706,22.375-2.878l1.3-28.782Z" transform="translate(-878.321 -603.135)" fill="#0f1a5c"/>
      <path id="Tracé_332" data-name="Tracé 332" d="M1379.236,914.034c.008,2.445-13.75,6.095-20.072,0l-.464,5.132s17.27,4.158,20.536-1.659Z" transform="translate(-883.165 -597.77)" fill="#f5b433"/>
      <path id="Tracé_333" data-name="Tracé 333" d="M1360.92,804.237c-.381,3.324,1.682,6.291,4.605,6.627s5.6-2.087,5.989-5.411-1.682-6.291-4.609-6.626S1361.3,800.913,1360.92,804.237Z" transform="translate(-884.485 -527.815)" fill="#80545e"/>
      <path id="Tracé_334" data-name="Tracé 334" d="M1377.643,826.541a6.849,6.849,0,0,1-1.906,1.3c-.637.133-7.51-5.42-5.022-11.646,1.572-3.943,9.026-.855,9.026-.855Z" transform="translate(-890.131 -537.161)" fill="#875963"/>
      <path id="Tracé_335" data-name="Tracé 335" d="M1379.692,842.685l.334.057a2.076,2.076,0,0,0,2.389-1.7l1.077-6.334a2.08,2.08,0,0,0-1.7-2.39l-.33-.057a2.077,2.077,0,0,0-2.389,1.7l-1.929,5.934C1376.953,841.02,1378.572,842.495,1379.692,842.685Z" transform="translate(-894.353 -548.116)" fill="#ffa3b4"/>
      <path id="Tracé_336" data-name="Tracé 336" d="M1384.975,844.006a5.675,5.675,0,0,1-4.5-2.548s1.713,3.979,4.2,4.319Z" transform="translate(-896.387 -553.713)" fill="#f08b9e"/>
      <path id="Tracé_337" data-name="Tracé 337" d="M1381.252,809.495c1.591-1.423,3.258-1.328,4.381,0,1.619-.235,3.045,1.059,3.568,3.57.731,3.5-.562,8.012-2.884,10.088-1.623,1.45-3.317,1.32-4.44-.079a4.462,4.462,0,0,1-4.614-3.847C1376.533,815.729,1378.929,811.57,1381.252,809.495Z" transform="translate(-894.353 -533.684)" fill="#ffa3b4"/>
      <path id="Tracé_338" data-name="Tracé 338" d="M1378.117,809.875s-.358,6.614-5.745,7.2c0,0-5.234-4.329.079-9.857,4.684-4.873,9.993.333,9.993.333Z" transform="translate(-890.067 -531.664)" fill="#875963"/>
      <path id="Tracé_339" data-name="Tracé 339" d="M1376.242,812.457c1.466-1.405,6.688-.409,10.2,1.682,1.859.433,1.839-1.3,1.092-3.3-.927-2.5-1.925-4.827-4.26-6.111l-.589-.246a7.926,7.926,0,0,0-9.773,3.006,6.755,6.755,0,0,0-.44.815l2.055.5C1373.617,810.827,1374.223,811.549,1376.242,812.457Z" transform="translate(-891.524 -530.888)" fill="#875963"/>
      <path id="Tracé_340" data-name="Tracé 340" d="M1374.9,834.925a1.572,1.572,0,1,0,1.218-1.86A1.571,1.571,0,0,0,1374.9,834.925Z" transform="translate(-892.976 -548.598)" fill="#ffa3b4"/>
      <path id="Tracé_341" data-name="Tracé 341" d="M1467.094,1130.151a5.2,5.2,0,0,1-2.6-.636l-40.172-23.88c-1.391-.825-1.368-2.157.047-2.955l6.645-3.753a2.8,2.8,0,0,1,.491-.35l6.33-3.576,8.319-.951,39.468,23.459c1.391.825,1.371,2.157-.047,2.959l-6.645,3.753a2.852,2.852,0,0,1-.491.346l-8.841,4.995A5.19,5.19,0,0,1,1467.094,1130.151Z" transform="translate(-922.376 -707.048)" fill="#c1ceee"/>
      <path id="Tracé_342" data-name="Tracé 342" d="M1460.3,1093.374l2.515-1.419a5.173,5.173,0,0,1,2.5-.585,5.226,5.226,0,0,1,2.6.633l.7.421Z" transform="translate(-944.841 -705.422)" fill="#a7bbe4"/>
      <path id="Tracé_343" data-name="Tracé 343" d="M1517.83,1085.773l-.334-2.468-39.52-24.3.118-5.989-2.043,1.246-.161,5.8.515.314Z" transform="translate(-954.305 -682.141)" fill="#83a1ed"/>
      <path id="Tracé_344" data-name="Tracé 344" d="M1568.309,1136.129a7.523,7.523,0,0,0,3.619,6.613c2.181,1.167,4.095.1,4.275-2.389a7.514,7.514,0,0,0-3.619-6.613C1570.4,1132.573,1568.49,1133.642,1568.309,1136.129Z" transform="translate(-1010.399 -730.855)" fill="#83a1ed"/>
      <path id="Tracé_345" data-name="Tracé 345" d="M1573.814,1134.511l.192.118c.711.436,1.568.456,1.588-.326l.747-5.458a2.816,2.816,0,0,0-1.257-2.212l-2.067-1.269c-.715-.436-1.312-.153-1.336.625l.743,6.4A2.847,2.847,0,0,0,1573.814,1134.511Z" transform="translate(-1012.454 -725.932)" fill="#83a1ed"/>
      <path id="Tracé_346" data-name="Tracé 346" d="M1486.36,1059.212l-17.553,11.25-44.357-25.255,24.729-12.858Z" transform="translate(-923.078 -669.594)" fill="#83a1ed"/>
      <path id="Tracé_347" data-name="Tracé 347" d="M1464.27,924.558l5.537,46.75,2.252-.362-5.58-45.526Z" transform="translate(-947.251 -604.159)" fill="#83a1ed"/>
      <path id="Tracé_348" data-name="Tracé 348" d="M1513.445,1001.874l.648-.9-43.964-36.159-.259,1.755Z" transform="translate(-950.651 -628.594)" fill="#83a1ed"/>
      <path id="Tracé_349" data-name="Tracé 349" d="M1515.6,1025.253l.566-.967-41.217-29.261-.24,2.124Z" transform="translate(-953.589 -646.936)" fill="#83a1ed"/>
      <path id="Tracé_350" data-name="Tracé 350" d="M1509.883,1039.188l.554-.971-43.913-29.837-.554.971Z" transform="translate(-948.283 -655.043)" fill="#83a1ed"/>
      <path id="Tracé_351" data-name="Tracé 351" d="M1491.3,997.609l1.144-.059-5.808-35.266-1.144.06Z" transform="translate(-960.133 -627.06)" fill="#83a1ed"/>
      <path id="Tracé_352" data-name="Tracé 352" d="M1508.873,1009.787l1.14-.071-5.773-33.346-1.139.071Z" transform="translate(-970.823 -635.612)" fill="#83a1ed"/>
      <path id="Tracé_353" data-name="Tracé 353" d="M1524.677,1022.179l1.155.02-2.841-28.476-1.151-.02Z" transform="translate(-982.199 -646.133)" fill="#83a1ed"/>
      <path id="Tracé_354" data-name="Tracé 354" d="M1540.832,1035.469l1.155.036-2.362-27.169-1.155-.035Z" transform="translate(-992.294 -654.994)" fill="#83a1ed"/>
      <path id="Tracé_355" data-name="Tracé 355" d="M1556.508,1048.067l1.155.055-1.807-25.286-1.155-.055Z" transform="translate(-1002.146 -663.784)" fill="#83a1ed"/>
      <path id="Tracé_356" data-name="Tracé 356" d="M1573.259,1060.474l.259-22.516-1.159-.157-.259,22.516Z" transform="translate(-1012.709 -672.902)" fill="#83a1ed"/>
      <path id="Tracé_357" data-name="Tracé 357" d="M1468.007,946.251l1.132,30.6,41.087,24.422,1.175-17.8Zm2.9,34.675-4.547-39.179,47.327,40.947-1.47,22.253Z" transform="translate(-948.52 -614.593)" fill="#83a1ed"/>
      <path id="Tracé_358" data-name="Tracé 358" d="M1467.977,981.231c.212-1.707.432-3.416.491-5.136.039-1.163.236-2.988-.4-4.053-.853-1.422-2.857-.619-4.04-.132a9.408,9.408,0,0,0-5.014,5.255c-1.077,2.444-2.22,5.416-1.859,8.115.051.369.641.373.589,0-.287-2.146.468-4.254,1.175-6.256a11.9,11.9,0,0,1,3.195-5.318,8.836,8.836,0,0,1,3.411-1.685c2.032-.536,2.318,1.147,2.362,2.721a42.741,42.741,0,0,1-.5,6.49C1467.34,981.606,1467.93,981.6,1467.977,981.231Z" transform="translate(-942.891 -632.496)" fill="#0f1a5c"/>
      <path id="Tracé_359" data-name="Tracé 359" d="M1478.634,1012.258l-22.261,12.535-2.3-26.442,21.6-11.392Z" transform="translate(-941.059 -642.04)" fill="#daa000"/>
      <path id="Tracé_360" data-name="Tracé 360" d="M1449.459,1038.988l-6.779-7.792,1.91-20.885,2.566,2.236Z" transform="translate(-934.145 -656.214)" fill="#daa000"/>
      <path id="Tracé_361" data-name="Tracé 361" d="M1500.623,985.78l-5.407-.794-.035,3.664Z" transform="translate(-966.015 -640.842)" fill="#daa000"/>
      <path id="Tracé_362" data-name="Tracé 362" d="M1443.2,993.448l20.461-8.462.149,3.567-16.339,8.62Z" transform="translate(-934.461 -640.842)" fill="#daa000"/>
      <path id="Tracé_363" data-name="Tracé 363" d="M1433,1029.313l-6.264.032,3.721-22.135,4.452,1.218Z" transform="translate(-924.469 -654.333)" fill="#daa000"/>
      <path id="Tracé_364" data-name="Tracé 364" d="M1436.25,988.751l21.974-11.962,1.218,3.221-15.459,10.847Z" transform="translate(-930.242 -635.866)" fill="#daa000"/>
      <path id="Tracé_365" data-name="Tracé 365" d="M1439.782,1071.252l-13.042-7.761,6.264-.031Z" transform="translate(-924.469 -688.479)" fill="#daa000"/>
      <path id="Tracé_366" data-name="Tracé 366" d="M1493.11,1003.884c0,.452.314.641.711.417a1.573,1.573,0,0,0,.723-1.23c0-.452-.311-.641-.708-.417A1.577,1.577,0,0,0,1493.11,1003.884Z" transform="translate(-964.758 -651.51)" fill="#0f1a5c"/>
      <path id="Tracé_367" data-name="Tracé 367" d="M1470.53,1015.967c0,.456.314.644.711.42a1.583,1.583,0,0,0,.723-1.23c0-.456-.314-.641-.707-.42A1.589,1.589,0,0,0,1470.53,1015.967Z" transform="translate(-951.051 -658.846)" fill="#0f1a5c"/>
      <path id="Tracé_368" data-name="Tracé 368" d="M1466.3,984.986l5.407.794-21.6,11.393-2.566-2.236.377-.2,2.315,1.835,20.65-10.647-4.723-.681Z" transform="translate(-937.095 -640.842)" fill="#fff"/>
      <path id="Tracé_369" data-name="Tracé 369" d="M1459.442,980.01c-.063-.159-1.218-3.221-1.218-3.221l-21.974,11.962,4.437,1.21.377-.2-4.04-1.116,21.062-11.429,1.218,3.052Z" transform="translate(-930.242 -635.866)" fill="#fff"/>
      <path id="Tracé_370" data-name="Tracé 370" d="M1479.134,985.395c-.593-3.472-1.088-7.109-2.448-10.383-.935-2.249-2.535-2.315-4.531-1.136-2.283,1.347-3.03,3.808-3.273,6.31-.334,3.381-.393,7.248.845,10.459.134.35.708.2.57-.157a20.638,20.638,0,0,1-.939-7.762c.02-2.406.075-5.329,1.768-7.224,1.273-1.424,3.56-2.72,4.888-.538a13.433,13.433,0,0,1,1.155,3.513c.6,2.329.994,4.707,1.4,7.076C1478.627,985.925,1479.2,985.768,1479.134,985.395Z" transform="translate(-949.925 -633.637)" fill="#0f1a5c"/>
      <path id="Tracé_371" data-name="Tracé 371" d="M1513.869,1018.214a48.991,48.991,0,0,1-.4-5.828c.02-1.481-.083-3.336,1.9-3.482,1.049-.079,2.656.971,3.426,1.536a10.494,10.494,0,0,1,3.391,5.187c.751,2.118,1.6,4.484,1.25,6.751-.055.369.511.53.57.153.417-2.711-.636-5.662-1.666-8.154a9.409,9.409,0,0,0-4.641-5.273c-1.222-.574-3.407-1.591-4.342-.079-.589.951-.483,2.645-.483,3.7a52.25,52.25,0,0,0,.4,5.486C1513.319,1018.587,1513.908,1018.591,1513.869,1018.214Z" transform="translate(-976.755 -654.955)" fill="#0f1a5c"/>
      <path id="Tracé_372" data-name="Tracé 372" d="M1481.1,1048.7l22.021,12.952,2.8-26.395-21.377-11.8Z" transform="translate(-957.468 -664.197)" fill="#f5b433"/>
      <path id="Tracé_373" data-name="Tracé 373" d="M1537.14,1076.543l6.924-7.667-1.517-20.917-2.605,2.189Z" transform="translate(-991.487 -679.07)" fill="#de9d1b"/>
      <path id="Tracé_374" data-name="Tracé 374" d="M1489.87,1022.432l5.419-.692-.035,3.666Z" transform="translate(-962.792 -663.153)" fill="#c48b18"/>
      <path id="Tracé_375" data-name="Tracé 375" d="M1523.622,1030.589l-20.3-8.849-.216,3.564,16.174,8.928Z" transform="translate(-970.829 -663.153)" fill="#de9d1b"/>
      <path id="Tracé_376" data-name="Tracé 376" d="M1552.417,1067.129l6.264.153-3.3-22.2-4.476,1.132Z" transform="translate(-999.839 -677.321)" fill="#f5b433"/>
      <path id="Tracé_377" data-name="Tracé 377" d="M1526.687,1025.98l-21.75-12.37-1.277,3.195,15.25,11.14Z" transform="translate(-971.163 -658.218)" fill="#de9d1b"/>
      <path id="Tracé_378" data-name="Tracé 378" d="M1537.14,1108.857l13.187-7.513-6.264-.153Z" transform="translate(-991.487 -711.383)" fill="#de9d1b"/>
      <path id="Tracé_379" data-name="Tracé 379" d="M1502.618,1041.213c0,.452-.326.637-.719.4a1.589,1.589,0,0,1-.7-1.246c0-.452.326-.633.715-.4A1.582,1.582,0,0,1,1502.618,1041.213Z" transform="translate(-969.669 -674.158)" fill="#0f1a5c"/>
      <path id="Tracé_380" data-name="Tracé 380" d="M1525.579,1053.156c0,.456-.326.636-.715.4a1.569,1.569,0,0,1-.7-1.242c0-.456.326-.637.719-.4A1.582,1.582,0,0,1,1525.579,1053.156Z" transform="translate(-983.607 -681.409)" fill="#0f1a5c"/>
      <path id="Tracé_381" data-name="Tracé 381" d="M1495.289,1021.74l-5.419.692,21.377,11.8,2.605-2.189-.373-.2-2.35,1.788-20.445-11.034,4.739-.589Z" transform="translate(-962.792 -663.153)" fill="#fff"/>
      <path id="Tracé_382" data-name="Tracé 382" d="M1503.66,1016.8l1.277-3.195,21.75,12.37-4.464,1.128-.373-.2,4.059-1.041-20.842-11.824-1.273,3.03Z" transform="translate(-971.163 -658.218)" fill="#fff"/>
      <path id="Tracé_383" data-name="Tracé 383" d="M1503.83,1022.459c.448-2.362.888-4.731,1.529-7.05a12.65,12.65,0,0,1,1.191-3.466c1.344-2,3.647-.9,4.908.613,1.643,1.965,1.651,4.825,1.631,7.258a20.668,20.668,0,0,1-1.089,7.745c-.141.354.428.507.57.157,1.269-3.108,1.269-6.822,1.061-10.126-.165-2.605-.821-5.23-3.179-6.684-2.094-1.289-3.642-1.092-4.625,1.238a50.572,50.572,0,0,0-2.566,10.158C1503.19,1022.671,1503.76,1022.832,1503.83,1022.459Z" transform="translate(-970.917 -656.095)" fill="#0f1a5c"/>
      <path id="Tracé_384" data-name="Tracé 384" d="M1416.4,951.119l21.078-10.859-1-1.774L1415.4,949.345Z" transform="translate(-917.585 -612.614)" fill="#83a1ed"/>
      <path id="Tracé_385" data-name="Tracé 385" d="M1420.042,977.8l21.078-10.858-1-1.774-21.078,10.858Z" transform="translate(-919.794 -628.811)" fill="#83a1ed"/>
      <path id="Tracé_386" data-name="Tracé 386" d="M1437.736,907.964a1.521,1.521,0,0,1,2.338-1.2l8.979,5.739a3.269,3.269,0,0,1,1.364,2.348l.153,2.234-12.135-7.756A1.516,1.516,0,0,1,1437.736,907.964Z" transform="translate(-931.142 -593.211)" fill="#daa000"/>
      <path id="Tracé_387" data-name="Tracé 387" d="M1465.623,1101.955l1.057-1.682-39.067-23.954-1.183-12.009-2.22-1.65,1.458,14.795Z" transform="translate(-922.933 -687.993)" fill="#f5f9ff"/>
      <path id="Tracé_388" data-name="Tracé 388" d="M1412.48,956.922l4.637,41.381,2.228,1.835-4.657-42.354Z" transform="translate(-915.812 -623.805)" fill="#f5f9ff"/>
      <path id="Tracé_389" data-name="Tracé 389" d="M1520.469,1165.809a7.514,7.514,0,0,0,3.619,6.613c2.177,1.167,4.091.1,4.272-2.389a7.514,7.514,0,0,0-3.619-6.613C1522.563,1162.253,1520.65,1163.322,1520.469,1165.809Z" transform="translate(-981.358 -748.872)" fill="#0f1a5c"/>
      <path id="Tracé_390" data-name="Tracé 390" d="M1525.97,1164.191l.2.118c.711.436,1.564.456,1.588-.326l.743-5.458a2.818,2.818,0,0,0-1.254-2.212l-2.071-1.269c-.711-.436-1.312-.153-1.332.625l.743,6.4A2.825,2.825,0,0,0,1525.97,1164.191Z" transform="translate(-983.413 -743.95)" fill="#f5f9ff"/>
      <path id="Tracé_391" data-name="Tracé 391" d="M1422.789,1104.869a7.518,7.518,0,0,0,3.623,6.613c2.177,1.167,4.091.1,4.271-2.389a7.509,7.509,0,0,0-3.619-6.614C1424.883,1101.313,1422.97,1102.382,1422.789,1104.869Z" transform="translate(-922.062 -711.879)" fill="#0f1a5c"/>
      <path id="Tracé_392" data-name="Tracé 392" d="M1428.294,1103.247l.193.122c.711.436,1.568.456,1.591-.326l.743-5.458a2.822,2.822,0,0,0-1.253-2.212l-2.071-1.269c-.711-.436-1.312-.153-1.336.625l.747,6.4A2.818,2.818,0,0,0,1428.294,1103.247Z" transform="translate(-924.117 -706.956)" fill="#f5f9ff"/>
      <path id="Tracé_393" data-name="Tracé 393" d="M1552.584,1066.8l-15.278,9.478,1.183-17.726,15.274-9.478Zm-17.314,12.846,19.058-11.824,1.474-22.115-19.058,11.824Z" transform="translate(-990.351 -677.704)" fill="#ebf3ff"/>
      <path id="Tracé_394" data-name="Tracé 394" d="M1540.158,1076.85l17.29-11.4-.664-1.006-17.294,11.4Z" transform="translate(-992.913 -689.074)" fill="#ebf3ff"/>
      <path id="Tracé_395" data-name="Tracé 395" d="M1538.958,1094.849l17.29-11.4-.664-1.01-17.294,11.4Z" transform="translate(-992.185 -700.001)" fill="#ebf3ff"/>
      <path id="Tracé_396" data-name="Tracé 396" d="M1572.45,1077.843l.845-19-1.139-.153-.845,19Z" transform="translate(-1012.229 -685.583)" fill="#ebf3ff"/>
      <path id="Tracé_397" data-name="Tracé 397" d="M1560.056,1084.313l.845-19-1.139-.153-.841,19Z" transform="translate(-1004.708 -689.511)" fill="#ebf3ff"/>
      <path id="Tracé_398" data-name="Tracé 398" d="M1548.17,1091.511l.892-20.041-1.187.888-.845,19Z" transform="translate(-997.49 -693.341)" fill="#ebf3ff"/>
      <path id="Tracé_399" data-name="Tracé 399" d="M1417.037,975.877l3.375,31.54,39.193,22.976,1.273-17.569Zm1.128,32.688-4.2-37.975,49.143,41.343-1.474,22.115Z" transform="translate(-916.711 -632.103)" fill="#f5f9ff"/>
      <path id="Tracé_400" data-name="Tracé 400" d="M1437.074,1025.129l1.175-.043-2.794-33.255-1.175.042Z" transform="translate(-929.046 -644.997)" fill="#f5f9ff"/>
      <path id="Tracé_401" data-name="Tracé 401" d="M1453.5,1036.49l1.179-.047-1.32-30.513-1.183.047Z" transform="translate(-939.912 -653.555)" fill="#f5f9ff"/>
      <path id="Tracé_402" data-name="Tracé 402" d="M1470.038,1049.5l1.179.035-.228-26.98-1.179-.035Z" transform="translate(-950.614 -663.626)" fill="#f5f9ff"/>
      <path id="Tracé_403" data-name="Tracé 403" d="M1489.214,1063.738l1.171.149-.224-26.237-1.171-.149Z" transform="translate(-962.257 -672.72)" fill="#f5f9ff"/>
      <path id="Tracé_404" data-name="Tracé 404" d="M1506.82,1076.525l1.183.067.181-24.049-1.179-.063Z" transform="translate(-973.081 -681.813)" fill="#f5f9ff"/>
      <path id="Tracé_405" data-name="Tracé 405" d="M1523.413,1089.724l.358-22.249-1.183-.165-.358,22.249Z" transform="translate(-982.436 -690.816)" fill="#f5f9ff"/>
      <path id="Tracé_406" data-name="Tracé 406" d="M1464.644,1037.25l.613-.927-45.779-33.193-.558.967Z" transform="translate(-919.722 -651.856)" fill="#f5f9ff"/>
      <path id="Tracé_407" data-name="Tracé 407" d="M1466.668,1059.14l.53-.982-44.019-27.267.122,1.615Z" transform="translate(-922.308 -668.707)" fill="#f5f9ff"/>
      <path id="Tracé_408" data-name="Tracé 408" d="M1467.227,1075.455l.519-.99L1424.34,1048.2l.22,1.926Z" transform="translate(-923.012 -679.215)" fill="#f5f9ff"/>
      <path id="Tracé_409" data-name="Tracé 409" d="M1386.177,939.643a1.524,1.524,0,0,1,2.342-1.2l8.979,5.739a3.268,3.268,0,0,1,1.364,2.348l.153,2.234-12.134-7.756A1.529,1.529,0,0,1,1386.177,939.643Z" transform="translate(-899.844 -612.442)" fill="#daa000"/>
      <path id="Tracé_410" data-name="Tracé 410" d="M1369.182,926.036s-11.757-2.171-13.3-11.751l3.273-2.991s-.468,6.025,11.333,11.853Z" transform="translate(-881.454 -596.106)" fill="#ffa3b4"/>
      <path id="Tracé_411" data-name="Tracé 411" d="M1357.076,867.909c-1.187,6.239-1.933,12.481-.484,18.737l-2.92,3.87s-5.093-1.646-5.034-9.583a42.068,42.068,0,0,1,3.234-16.526Z" transform="translate(-877.057 -567.644)" fill="#f5b433"/>
      <path id="Tracé_412" data-name="Tracé 412" d="M1385.446,940.867l.354-.5a2.037,2.037,0,0,1,2.829-.477l1.866,1.326a2.035,2.035,0,0,1,.475,2.83l-.35.5a2.036,2.036,0,0,1-2.829.477l-1.867-1.326A2.039,2.039,0,0,1,1385.446,940.867Z" transform="translate(-899.176 -613.242)" fill="#ffa3b4"/>
      <path id="Tracé_413" data-name="Tracé 413" d="M1445.09,907.97l.326-.512a2.036,2.036,0,0,1,2.8-.618l1.929,1.232a2.036,2.036,0,0,1,.617,2.8l-.326.512a2.036,2.036,0,0,1-2.8.618l-1.929-1.232A2.036,2.036,0,0,1,1445.09,907.97Z" transform="translate(-935.415 -593.211)" fill="#ffa3b4"/>
      <path id="Tracé_414" data-name="Tracé 414" d="M1396.364,839.021l-3.784.107s1.085,2.139,2.153,1.923S1396.364,839.021,1396.364,839.021Z" transform="translate(-903.732 -552.234)" fill="#fff"/>
      <path id="Tracé_415" data-name="Tracé 415" d="M842.673,1068.274,901.9,1102.1c1.6.92,1.411,2.554-.428,3.643L865.5,1126.965c-1.839,1.084-12.081,1.588-13.686.668l-51.8-34.191c-1.6-.916-1.413-2.554.426-3.639l35.966-21.223A6.957,6.957,0,0,1,842.673,1068.274Z" transform="translate(-543.359 -691.033)" fill="#b8c8f2"/>
      <path id="Tracé_416" data-name="Tracé 416" d="M872.033,1103.616l-.212-4.2-6.9-.747-53.2-30.391a6.957,6.957,0,0,0-6.261.307l-33.883,19.994-3.755-.4.16,3.745v.043h0a1.9,1.9,0,0,0,1.083,1.485l59.223,33.829a6.957,6.957,0,0,0,6.261-.306l35.967-21.219A2.553,2.553,0,0,0,872.033,1103.616Z" transform="translate(-524.475 -691.033)" fill="#2d62d1"/>
      <path id="Tracé_417" data-name="Tracé 417" d="M811.435,1057.634l59.222,33.829c1.6.916,1.415,2.554-.424,3.639l-35.967,21.224a6.957,6.957,0,0,1-6.261.307L768.782,1082.8c-1.6-.916-1.413-2.554.426-3.639l35.966-21.219A6.957,6.957,0,0,1,811.435,1057.634Z" transform="translate(-524.397 -684.574)" fill="#437df7"/>
      <path id="Tracé_418" data-name="Tracé 418" d="M907.139,1175.162l10.522,6.008c.507.291.446.806-.135,1.151a2.2,2.2,0,0,1-1.979.094l-10.522-6.008c-.507-.291-.446-.809.135-1.151A2.2,2.2,0,0,1,907.139,1175.162Z" transform="translate(-607.555 -756.17)" fill="#fff"/>
      <path id="Tracé_419" data-name="Tracé 419" d="M870.719,1067.91l10.072,5.753c.631.358.555,1-.168,1.43a2.738,2.738,0,0,1-2.462.122l-10.072-5.757c-.631-.358-.556-1,.167-1.43A2.737,2.737,0,0,1,870.719,1067.91Z" transform="translate(-585.082 -691.035)" fill="#fff"/>
      <path id="Tracé_420" data-name="Tracé 420" d="M846.058,1079.985l8.661,4.947c1.019.582.9,1.623-.271,2.311l-1.656.979a4.409,4.409,0,0,1-3.976.193l-8.661-4.947c-1.019-.582-.9-1.619.271-2.311l1.656-.974A4.409,4.409,0,0,1,846.058,1079.985Z" transform="translate(-567.965 -698.277)" fill="#ffd482"/>
      <path id="Tracé_421" data-name="Tracé 421" d="M796.654,1112.757l26.383,15.074c.507.287.447.806-.135,1.147a2.185,2.185,0,0,1-1.979.1l-26.383-15.07c-.507-.291-.446-.809.135-1.151A2.21,2.21,0,0,1,796.654,1112.757Z" transform="translate(-540.485 -718.289)" fill="#fff"/>
      <path id="Tracé_422" data-name="Tracé 422" d="M931.768,1162.55l8.764,5c.767.44.675,1.222-.2,1.741a3.331,3.331,0,0,1-2.994.149l-8.763-5.006c-.767-.44-.675-1.222.2-1.741A3.318,3.318,0,0,1,931.768,1162.55Z" transform="translate(-621.741 -748.454)" fill="#fff"/>
      <path id="Tracé_423" data-name="Tracé 423" d="M894.059,1141.01l8.763,5c.767.44.675,1.222-.2,1.741a3.333,3.333,0,0,1-2.994.149l-8.763-5.006c-.768-.44-.676-1.222.2-1.741A3.319,3.319,0,0,1,894.059,1141.01Z" transform="translate(-598.849 -735.379)" fill="#fff"/>
      <path id="Tracé_424" data-name="Tracé 424" d="M856.35,1119.47l8.763,5c.767.44.675,1.222-.2,1.741a3.318,3.318,0,0,1-2.994.145l-8.763-5c-.767-.44-.675-1.222.2-1.741A3.318,3.318,0,0,1,856.35,1119.47Z" transform="translate(-575.958 -722.303)" fill="#fff"/>
      <path id="Tracé_425" data-name="Tracé 425" d="M818.64,1097.93l8.764,5c.767.44.675,1.222-.2,1.741a3.319,3.319,0,0,1-2.993.146l-8.763-5c-.767-.44-.675-1.222.2-1.741A3.319,3.319,0,0,1,818.64,1097.93Z" transform="translate(-553.067 -709.227)" fill="#fff"/>
      <path id="Tracé_426" data-name="Tracé 426" d="M974.469,1140.774a9.208,9.208,0,0,1,8.366-.043c2.326,1.328,2.353,3.5.057,4.857a9.208,9.208,0,0,1-8.366.043C972.2,1144.3,972.175,1142.13,974.469,1140.774Z" transform="translate(-648.885 -734.789)" fill="#fff"/>
      <path id="Tracé_427" data-name="Tracé 427" d="M869.644,1133.863l-35.966,21.223a6.862,6.862,0,0,1-3.371.849,5.064,5.064,0,0,1-2.45-.546l-59.223-33.829a.437.437,0,1,0-.434.758l59.223,33.829a5.876,5.876,0,0,0,2.884.664,7.716,7.716,0,0,0,3.816-.971l35.965-21.224a.437.437,0,0,0,.157-.6A.442.442,0,0,0,869.644,1133.863Z" transform="translate(-524.57 -723.712)" fill="#fff"/>
      <path id="Tracé_428" data-name="Tracé 428" d="M1277.526,518.552l-73.29,45.283L1201.6,562V529.264l75.926-43.447,2.637,1.836Z" transform="translate(-787.798 -337.823)" fill="#daa000"/>
      <path id="Tracé_429" data-name="Tracé 429" d="M1284.236,523.225l-75.926,43.447V533.937l75.926-43.447Z" transform="translate(-791.872 -340.659)" fill="#daa000"/>
      <path id="Tracé_430" data-name="Tracé 430" d="M1259.43,606.927l.884-1.685a3.08,3.08,0,0,0,3.195-.184,4.393,4.393,0,0,0,2.42-3.564c0-1.357-.833-1.3-1.925-1.239l-1.658.127c-1.1.105-2.35-.123-2.35-2.068a7.177,7.177,0,0,1,3.639-5.625,3.379,3.379,0,0,1,3.422-.337l-.794,1.553a2.608,2.608,0,0,0-2.629.263,3.973,3.973,0,0,0-2.157,3.188c0,1.277,1.01,1.182,1.926,1.1l1.642-.138c1.34-.106,2.385.2,2.385,2.17a7.6,7.6,0,0,1-3.937,6.062C1261.866,607.486,1260.436,607.542,1259.43,606.927Z" transform="translate(-822.904 -402.298)" fill="#fff"/>
      <path id="Tracé_431" data-name="Tracé 431" d="M1285.59,577.972l1.462-.846V582.7l5.387-3.109v-5.571l1.481-.856v13.291l-1.481.856v-6.261l-5.387,3.109v6.261l-1.462.846Z" transform="translate(-838.784 -390.844)" fill="#fff"/>
      <path id="Tracé_432" data-name="Tracé 432" d="M1321.546,565.376c0-3.3-1.36-4.563-3.423-3.371s-3.427,4.023-3.427,7.326c0,3.323,1.36,4.686,3.427,3.493S1321.546,568.7,1321.546,565.376Zm-8.366,4.832c0-4.254,2.028-8,4.943-9.682s4.959-.271,4.959,3.963c0,4.275-2.047,8.132-4.959,9.814S1313.18,574.482,1313.18,570.207Z" transform="translate(-855.533 -382.755)" fill="#fff"/>
      <path id="Tracé_433" data-name="Tracé 433" d="M1347.915,551.581c2.012-1.162,2.986-2.573,2.986-4.458,0-1.925-1.026-1.962-3.057-.789l-1.658.958v5.288Zm-3.195-4.8,3.3-1.906c2.6-1.5,4.342-1.515,4.342,1.4,0,2.8-1.729,5.112-4.271,6.58l-1.906,1.1v5.268l-1.466.846Z" transform="translate(-874.679 -373.068)" fill="#fff"/>
      <path id="Tracé_434" data-name="Tracé 434" d="M754.534,122.158s6.538-8.243,17.622-7.39,15.916,5.969,15.916,5.969,9.237-12.221,24.159-11.511,19.4,12.577,19.4,12.577Z" transform="translate(-516.408 -109.196)" fill="#daa000"/>
      <path id="Tracé_435" data-name="Tracé 435" d="M1532.52,342.6h78.422s-4.436-16.84-15.184-16.84S1580.9,338.7,1580.9,338.7s-5.721-7.068-11.682-7.068c-9.541,0-12.665,7.068-12.665,7.068s-7.12-5.012-12.885-3.218C1537.577,337.379,1532.52,342.6,1532.52,342.6Z" transform="translate(-988.682 -240.662)" fill="#daa000"/>
      <path id="Tracé_436" data-name="Tracé 436" d="M202.932,429.3s-4.434-16.84-15.185-16.84S172.892,425.4,172.892,425.4s-5.723-7.068-11.682-7.068c-9.541,0-12.666,9.844-12.666,9.844Z" transform="translate(-148.544 -293.29)" fill="#daa000"/>
      <path id="Tracé_437" data-name="Tracé 437" d="M1156.39,424.095l-39.15-2.609,31.409-57.564,56.758,31.426Z" transform="translate(-736.588 -263.827)" fill="#2f57cd"/>
      <path id="Tracé_438" data-name="Tracé 438" d="M1102.615,289.838v-.048c-.016-.229-.067-1.268-.067-2.817a59.032,59.032,0,0,1,1.309-12.827,24.623,24.623,0,0,1,2.385-6.485,10.054,10.054,0,0,1,4.1-4.194,8.518,8.518,0,0,1,3.772-1.049,4.543,4.543,0,0,1,2.087.482,6.4,6.4,0,0,1,2.621,2.8,21.089,21.089,0,0,1,1.977,6.9,46.629,46.629,0,0,1,.4,6.163c0,.469-.008.846-.012,1.1,0,.129-.008.229-.012.3a.914.914,0,0,1,0,.1.6.6,0,0,0,1.2.059c0-.008.028-.595.028-1.557a40.477,40.477,0,0,0-1.218-10.3,13.415,13.415,0,0,0-2.428-5.014,6.517,6.517,0,0,0-2.008-1.627,5.756,5.756,0,0,0-2.629-.611,9.7,9.7,0,0,0-4.311,1.176,11.238,11.238,0,0,0-4.605,4.673,30.834,30.834,0,0,0-3.2,10.46,66.637,66.637,0,0,0-.652,9.443c0,1.8.071,2.929.071,2.939a.6.6,0,1,0,1.195-.073Z" transform="translate(-726.942 -201.482)" fill="#fff"/>
      <path id="Tracé_439" data-name="Tracé 439" d="M1156.887,354.588l-48.243,27.77-5.564-57.564L1149.9,299.53Z" transform="translate(-727.992 -224.738)" fill="#daa000"/>
      <path id="Tracé_440" data-name="Tracé 440" d="M1094.184,414.041,1079.26,397.2l3.729-45.543,5.631,4.819Z" transform="translate(-713.532 -256.382)" fill="#daa000"/>
      <path id="Tracé_441" data-name="Tracé 441" d="M1204,297.131l-11.8-1.618V303.5Z" transform="translate(-782.092 -222.299)" fill="#daa000"/>
      <path id="Tracé_442" data-name="Tracé 442" d="M1079.21,314.368l44.4-18.855.4,7.769-35.421,19.112Z" transform="translate(-713.502 -222.299)" fill="#daa000"/>
      <path id="Tracé_443" data-name="Tracé 443" d="M1058.171,393.245l-13.651.2,7.651-48.3,9.729,2.561Z" transform="translate(-692.443 -252.425)" fill="#daa000"/>
      <path id="Tracé_444" data-name="Tracé 444" d="M1064.07,304.228l47.634-26.511,2.715,6.993-33.452,23.952Z" transform="translate(-704.311 -211.496)" fill="#daa000"/>
      <path id="Tracé_445" data-name="Tracé 445" d="M1073.1,484.4l-28.576-16.642,13.651-.2Z" transform="translate(-692.443 -326.739)" fill="#daa000"/>
      <path id="Tracé_446" data-name="Tracé 446" d="M1189.26,337.933c0,.991.7,1.393,1.556.9a3.439,3.439,0,0,0,1.552-2.693c0-.992-.7-1.394-1.552-.9A3.433,3.433,0,0,0,1189.26,337.933Z" transform="translate(-780.307 -246.286)" fill="#dfe3f8"/>
      <path id="Tracé_447" data-name="Tracé 447" d="M1138.99,363.489c0,.992.7,1.394,1.552.9a3.433,3.433,0,0,0,1.556-2.693c0-.991-.7-1.393-1.556-.9A3.439,3.439,0,0,0,1138.99,363.489Z" transform="translate(-749.791 -261.8)" fill="#dfe3f8"/>
      <path id="Tracé_448" data-name="Tracé 448" d="M1129.4,295.513l11.8,1.618-46.816,25.263-5.631-4.819.817-.439,5.077,3.946,44.773-23.618-10.307-1.387Z" transform="translate(-719.293 -222.299)" fill="#ff8ad8"/>
      <path id="Tracé_449" data-name="Tracé 449" d="M1114.419,284.71l-2.715-6.993-47.634,26.511,9.7,2.544.817-.439-8.826-2.347,45.653-25.336,2.715,6.624Z" transform="translate(-704.311 -211.496)" fill="#ff8ad8"/>
      <path id="Tracé_450" data-name="Tracé 450" d="M1142.515,321.39l0-.048c-.012-.229-.067-1.269-.067-2.818a59.28,59.28,0,0,1,1.309-12.827,24.627,24.627,0,0,1,2.389-6.484,10.048,10.048,0,0,1,4.1-4.195,8.523,8.523,0,0,1,3.772-1.049,4.532,4.532,0,0,1,2.087.482,6.4,6.4,0,0,1,2.621,2.805,21.092,21.092,0,0,1,1.977,6.9,46,46,0,0,1,.4,6.163c0,.469,0,.845-.012,1.1,0,.129-.008.229-.012.3a.923.923,0,0,1,0,.1.6.6,0,0,0,1.2.059c0-.008.028-.595.028-1.557a40.618,40.618,0,0,0-1.214-10.3,13.474,13.474,0,0,0-2.432-5.014,6.469,6.469,0,0,0-2.008-1.627,5.738,5.738,0,0,0-2.629-.611,9.7,9.7,0,0,0-4.311,1.176,11.232,11.232,0,0,0-4.6,4.673,30.752,30.752,0,0,0-3.2,10.46,66.563,66.563,0,0,0-.648,9.443c0,1.8.067,2.929.067,2.939a.6.6,0,0,0,1.2-.073Z" transform="translate(-751.163 -220.635)" fill="#fff"/>
      <path id="Tracé_451" data-name="Tracé 451" d="M1165.536,354.691l-28.406,14.9c-.507.264-.92-.034-.92-.663a1.988,1.988,0,0,1,.92-1.626l28.406-14.9c.507-.264.92.034.92.663A1.988,1.988,0,0,1,1165.536,354.691Z" transform="translate(-748.103 -256.775)" fill="#fff"/>
      <path id="Tracé_452" data-name="Tracé 452" d="M1146.032,745.314l-18.622-11.459V656.393l18.622,11.459Z" transform="translate(-742.761 -441.37)" fill="#ffc248"/>
      <path id="Tracé_453" data-name="Tracé 453" d="M952.85,761.35l1.192-.821L993.568,783l.279,12.248H992Z" transform="translate(-636.795 -504.586)" fill="#daa000"/>
      <path id="Tracé_454" data-name="Tracé 454" d="M1020.845,863.367a2.216,2.216,0,0,0,2.9-2.273c.153-3.016.468-6.006.468-6.006l10.056-8.235-3.348-1.309-7.49,4.8-4,3.575Z" transform="translate(-677.213 -556.194)" fill="#daa000"/>
      <path id="Tracé_455" data-name="Tracé 455" d="M938.821,795.847l-9.876-5.788,15.479-12.381,8.355,6.272Z" transform="translate(-622.284 -514.996)" fill="#fff"/>
      <path id="Tracé_456" data-name="Tracé 456" d="M963.954,810.137l-9.876-5.788,14.858-12.664,10.822,5.749Z" transform="translate(-637.541 -523.499)" fill="#daa000"/>
      <path id="Tracé_457" data-name="Tracé 457" d="M989.086,825.4l-9.875-5.788,15.329-12.32,9.674,4.882Z" transform="translate(-652.798 -532.972)" fill="#fff"/>
      <path id="Tracé_458" data-name="Tracé 458" d="M1014.219,838.061l-9.879-5.788,14.465-13.657,4.448,11.89Z" transform="translate(-668.052 -539.847)" fill="#daa000"/>
      <path id="Tracé_459" data-name="Tracé 459" d="M932.113,823.588l-.687-.4c-2.544-1.491-4.334-5.312-4-8.535l.573-5.485,9.9,5.8-.572,5.485C936.991,823.675,934.656,825.079,932.113,823.588Z" transform="translate(-621.338 -534.11)" fill="#e6f0ff"/>
      <path id="Tracé_460" data-name="Tracé 460" d="M982.376,853.066l-.687-.4c-2.544-1.491-4.334-5.312-4-8.535l.573-5.485,9.9,5.8-.574,5.485C987.254,853.153,984.921,854.557,982.376,853.066Z" transform="translate(-651.851 -552.004)" fill="#e6f0ff"/>
      <path id="Tracé_461" data-name="Tracé 461" d="M957.009,838.046l-.687-.4c-2.544-1.491-4.334-5.313-4-8.535l.573-5.485,9.9,5.8-.572,5.485C961.888,838.133,959.553,839.537,957.009,838.046Z" transform="translate(-636.452 -542.887)" fill="#daa000"/>
      <path id="Tracé_462" data-name="Tracé 462" d="M1007.576,867.8l-.688-.4c-2.546-1.491-4.334-5.312-4-8.535l.574-5.486,9.9,5.8-.57,5.485C1012.453,867.885,1010.118,869.288,1007.576,867.8Z" transform="translate(-667.146 -560.947)" fill="#daa000"/>
      <path id="Tracé_463" data-name="Tracé 463" d="M992,796.513l-39.127-23.125-.019-10.769,39.079,22.756Z" transform="translate(-636.795 -505.854)" fill="#daa000"/>
    </g>
  </g>
</svg>
