<svg xmlns="http://www.w3.org/2000/svg" width="198.028" height="278.415" viewBox="0 0 198.028 278.415">
  <path id="logo-d-right" d="M187.028,278.415l-.02-.016h-.224a187.434,187.434,0,0,1-154.93-82.222A185.529,185.529,0,0,1,24.439,0H79.371A144.272,144.272,0,0,0,45.493,92.811c0,79.681,65.09,144.507,145.1,144.507h7.438v41.1h-11Zm-2.755-82.173a92.073,92.073,0,0,1-68.062-30.485A107.773,107.773,0,0,1,88.017,92.149a107.871,107.871,0,0,1,28.194-73.6A91.722,91.722,0,0,1,139.311,0h58.717V195.173a90.522,90.522,0,0,1-13.755,1.069Z" fill="#2d435a" opacity="0.1"/>
</svg>
